<svg xmlns="http://www.w3.org/2000/svg" width="79" height="79" viewBox="0 0 79 79">
  <g id="Group_54" data-name="Group 54" transform="translate(-924 -6403)">
    <g id="Ellipse_16" data-name="Ellipse 16" transform="translate(924 6403)" fill="none" stroke="#000067" stroke-width="4">
      <circle cx="39.5" cy="39.5" r="39.5" stroke="none"/>
      <circle cx="39.5" cy="39.5" r="37.5" fill="none"/>
    </g>
    <path id="Twitter" d="M156.934,143.786a18.132,18.132,0,0,1-5.212,1.429,9.1,9.1,0,0,0,3.99-5.021,18.173,18.173,0,0,1-5.763,2.2,9.085,9.085,0,0,0-15.467,8.278,25.768,25.768,0,0,1-18.708-9.483,9.087,9.087,0,0,0,2.808,12.118,9.037,9.037,0,0,1-4.11-1.136c0,.039,0,.076,0,.114a9.081,9.081,0,0,0,7.28,8.9,9.1,9.1,0,0,1-4.1.155,9.087,9.087,0,0,0,8.486,6.3,18.207,18.207,0,0,1-11.273,3.885,18.472,18.472,0,0,1-2.163-.127,25.687,25.687,0,0,0,13.915,4.078c16.695,0,25.825-13.83,25.825-25.825q0-.591-.026-1.174a18.432,18.432,0,0,0,4.516-4.7Z" transform="translate(828.686 6284.994)" fill="#000067"/>
  </g>
</svg>
