<svg width="29" height="47" viewBox="0 0 29 47" fill="none" xmlns="http://www.w3.org/2000/svg">
<path d="M0.852539 3.76711C0.852539 2.26608 2.06991 1.04871 3.57095 1.04871H24.6534C26.1544 1.04871 27.3718 2.26608 27.3718 3.76711V43.4027C27.3718 44.9037 26.1544 46.1211 24.6534 46.1211H3.57095C2.06991 46.1211 0.852539 44.9037 0.852539 43.4027V3.76711Z" fill="white"/>
<path d="M1.63867 8.44453V3.7671C1.63867 2.88361 2.38032 2.17151 3.28449 2.17151H25.017C25.9507 2.17151 26.6924 2.88361 26.6924 3.7671V8.44453H1.63867Z" fill="black"/>
<path d="M1.63867 38.7133V43.3907C1.63867 44.2742 2.38032 44.9863 3.28449 44.9863H25.017C25.9507 44.9863 26.6924 44.2624 26.6924 43.3907V38.7133H1.63867Z" fill="black"/>
<path fill-rule="evenodd" clip-rule="evenodd" d="M25.0153 46.5612H3.27095C1.46558 46.5612 0 45.137 0 43.3789V3.77875C0 2.02065 1.46558 0.596436 3.27095 0.596436H25.0034C26.8206 0.596436 28.298 2.02065 28.298 3.77875V43.3907C28.3069 45.137 26.8206 46.5612 25.0153 46.5612ZM3.27095 1.48878C1.96789 1.48878 0.904166 2.5141 0.904166 3.76693V43.3789C0.904166 44.6347 1.96789 45.657 3.27095 45.657H25.0034C26.3302 45.657 27.4027 44.6347 27.4027 43.3789V3.77875C27.4027 2.52296 26.3302 1.5006 25.0034 1.5006H3.27095V1.48878Z" fill="black"/>
<path d="M1.63867 9.16833H26.7012V38.0396H1.63867V9.16833Z" fill="black"/>
<path fill-rule="evenodd" clip-rule="evenodd" d="M14.8091 32.3902V32.1006C15.4001 31.9086 15.5006 31.4683 15.5213 31.1374C15.5213 31.1167 15.5213 31.0546 15.5213 31.0369V30.966C15.5213 30.5642 15.4001 29.4502 15.4001 29.4502C15.081 27.1218 14.0764 24.7137 12.791 23.1565L12.7201 23.0678L12.6108 23.0974C11.1452 23.4786 9.44915 23.6883 7.73242 23.6883H7.55218L7.56104 30.4637C7.56104 31.3176 7.92153 31.879 8.60408 32.1006V32.402H4.4201V32.1006C5.08197 31.8879 5.42177 31.356 5.46314 30.4726C5.46314 30.313 5.46314 14.0646 5.46314 13.8755C5.44246 12.9418 5.10265 12.4099 4.39941 12.1972V11.9076H11.3461C13.382 11.9076 14.7087 12.3479 15.7724 13.06C17.1287 13.9848 18.0712 15.6306 18.0506 17.2262C18.0506 19.395 16.8273 21.2093 14.6082 22.3439C14.5669 22.3646 14.5284 22.3853 14.4989 22.3942C14.4575 22.4148 14.4162 22.4355 14.3659 22.4562L14.1561 22.5567L14.3068 22.7369C15.7517 24.3916 16.6559 26.7495 17.0666 28.0142C17.238 28.546 17.3769 29.0897 17.6192 30.0825L17.6694 30.2834C18.0003 31.6072 18.7538 32.0002 19.135 32.1095V32.402L14.8091 32.3902ZM7.72355 22.6749C15.0899 22.5448 15.8817 18.8307 15.8817 17.2351C15.8817 15.8286 15.3203 14.6555 14.2861 13.9228C13.5031 13.3702 12.5192 13.0984 11.2161 13.0806H7.53149V22.6749H7.72355Z" fill="white"/>
<path d="M10.2795 16.7859C10.2795 16.8538 10.2795 18.9813 10.2795 21.5933C11.293 21.4308 12.0465 21.1087 12.3774 20.9403V15.991H14.8654C14.6763 15.4001 14.304 14.9687 14.1444 14.8062H9.21582V15.0987C9.92793 15.3203 10.2677 15.861 10.2795 16.7859Z" fill="white"/>
<path d="M12.388 33.3739L12.3791 26.5985H12.5594C12.9494 26.5985 13.4724 26.5897 13.8625 26.569C13.7649 26.1789 13.5936 25.8066 13.4636 25.5762C13.2213 25.585 12.8194 25.5968 12.5683 25.6057H12.388V23.9688C11.9064 24.1106 10.7924 24.2701 10.2901 24.3322C10.2901 28.6462 10.2901 33.2941 10.2901 33.3739V33.3827C10.2517 34.2662 9.90894 34.7981 9.24707 35.0108V35.3122H13.4311V35.0108C12.7485 34.7892 12.388 34.2278 12.388 33.3739Z" fill="white"/>
<path d="M22.4842 33.1938L22.434 32.9929C22.1917 32.0001 22.0617 31.4475 21.8814 30.9245C21.4707 29.6717 20.5666 27.3138 19.1217 25.6473L18.971 25.467L19.1808 25.3665C19.231 25.3459 19.2724 25.3252 19.3108 25.3045C19.3521 25.2838 19.3817 25.275 19.4231 25.2543C21.6392 24.1196 22.8654 22.3054 22.8654 20.1366C22.8861 18.541 21.9405 16.8952 20.5873 15.9703C20.0052 15.5803 19.2399 15.1902 18.3889 15.0396C18.6489 15.5094 18.838 16.3219 18.8794 16.6942C18.9601 16.7435 19.0409 16.7937 19.1217 16.8449C20.144 17.5777 20.7173 18.7508 20.7173 20.1573C20.7173 21.3717 20.2238 23.8301 16.6396 25.0238C16.8731 25.4256 17.0622 25.8364 17.1626 26.0668C17.2129 26.058 17.3843 26.0166 17.4345 26.0077L17.5438 25.9782L17.6147 26.0668C18.9001 27.624 19.9047 30.0322 20.2238 32.3605C20.2238 32.3694 20.345 33.4745 20.345 33.8764V33.9473C20.345 33.9768 20.345 33.9975 20.345 34.0152V34.0477C20.3243 34.3668 20.2356 34.8101 19.6329 35.011V35.3006H23.9498V35.0199C23.5775 34.9105 22.8152 34.5087 22.4842 33.1938Z" fill="white"/>
<path fill-rule="evenodd" clip-rule="evenodd" d="M3.71191 39.928H4.9677C5.40796 39.928 5.75959 40.0373 6.01074 40.2589C6.2619 40.4805 6.39191 40.7701 6.39191 41.1513C6.39191 41.3817 6.33282 41.5827 6.22053 41.7659C6.11121 41.9461 5.95165 42.0968 5.7389 42.2061L6.77308 43.781H5.90142L5.07703 42.3952C5.01793 42.3952 4.9677 42.4071 4.9352 42.4071C4.89679 42.4071 4.85542 42.4071 4.82587 42.4071H4.45357V43.781H3.71191V39.928ZM4.4447 41.7747H4.82587C5.35773 41.7747 5.61776 41.5649 5.61776 41.1542C5.61776 40.9533 5.5498 40.8026 5.42865 40.7021C5.29864 40.6017 5.10756 40.5514 4.85542 40.5514H4.45357L4.4447 41.7747Z" fill="white"/>
<path d="M3.71191 39.928H4.9677C5.40796 39.928 5.75959 40.0373 6.01074 40.2589C6.2619 40.4805 6.39191 40.7701 6.39191 41.1513C6.39191 41.3817 6.33282 41.5827 6.22053 41.7659C6.11121 41.9461 5.95165 42.0968 5.7389 42.2061L6.77308 43.781H5.90142L5.07703 42.3952C5.01793 42.3952 4.9677 42.4071 4.9352 42.4071C4.89679 42.4071 4.85542 42.4071 4.82587 42.4071H4.45357V43.781H3.71191V39.928ZM4.4447 41.7747H4.82587C5.35773 41.7747 5.61776 41.5649 5.61776 41.1542C5.61776 40.9533 5.5498 40.8026 5.42865 40.7021C5.29864 40.6017 5.10756 40.5514 4.85542 40.5514H4.45357L4.4447 41.7747Z" stroke="white" stroke-width="0.0413671"/>
<path fill-rule="evenodd" clip-rule="evenodd" d="M9.83746 43.8515C9.46811 43.8515 9.12535 43.7717 8.82397 43.6004C8.51371 43.429 8.27142 43.1985 8.09118 42.8883C7.91093 42.5869 7.81934 42.2352 7.81934 41.8452C7.81934 41.4818 7.90207 41.1508 8.07049 40.8495C8.24187 40.551 8.48416 40.2999 8.79442 40.1167C9.10566 39.9374 9.45728 39.8478 9.84928 39.8478C10.2186 39.8478 10.5614 39.9276 10.8716 40.0989C11.1819 40.2674 11.4242 40.5008 11.6044 40.811C11.7847 41.1124 11.8763 41.4641 11.8763 41.8541C11.8763 42.2146 11.7965 42.5455 11.6251 42.8469C11.4537 43.1483 11.2144 43.3994 10.9012 43.5797C10.5821 43.7511 10.2304 43.8515 9.83746 43.8515ZM9.83746 43.1601C10.0679 43.1601 10.2807 43.1099 10.4609 42.9976C10.65 42.8883 10.7919 42.7376 10.9012 42.5366C11.0135 42.3357 11.0637 42.1052 11.0637 41.8452C11.0637 41.6029 11.0135 41.3823 10.913 41.1833C10.8125 40.9824 10.6618 40.8199 10.4816 40.7106C10.2895 40.5894 10.0798 40.5303 9.83746 40.5303C9.60698 40.5303 9.40606 40.5806 9.21695 40.6899C9.03376 40.7992 8.88306 40.9499 8.77373 41.1508C8.66441 41.3518 8.61417 41.5822 8.61417 41.8452C8.61417 42.0855 8.66441 42.3062 8.76487 42.5071C8.86533 42.708 9.00421 42.8676 9.19627 42.9769C9.37651 43.0981 9.59812 43.1601 9.83746 43.1601Z" fill="white"/>
<path d="M9.83746 43.8515C9.46811 43.8515 9.12535 43.7717 8.82397 43.6004C8.51371 43.429 8.27142 43.1985 8.09118 42.8883C7.91093 42.5869 7.81934 42.2352 7.81934 41.8452C7.81934 41.4818 7.90207 41.1508 8.07049 40.8495C8.24187 40.551 8.48416 40.2999 8.79442 40.1167C9.10566 39.9374 9.45728 39.8478 9.84928 39.8478C10.2186 39.8478 10.5614 39.9276 10.8716 40.0989C11.1819 40.2674 11.4242 40.5008 11.6044 40.811C11.7847 41.1124 11.8763 41.4641 11.8763 41.8541C11.8763 42.2146 11.7965 42.5455 11.6251 42.8469C11.4537 43.1483 11.2144 43.3994 10.9012 43.5797C10.5821 43.7511 10.2304 43.8515 9.83746 43.8515ZM9.83746 43.1601C10.0679 43.1601 10.2807 43.1099 10.4609 42.9976C10.65 42.8883 10.7919 42.7376 10.9012 42.5366C11.0135 42.3357 11.0637 42.1052 11.0637 41.8452C11.0637 41.6029 11.0135 41.3823 10.913 41.1833C10.8125 40.9824 10.6618 40.8199 10.4816 40.7106C10.2895 40.5894 10.0798 40.5303 9.83746 40.5303C9.60698 40.5303 9.40606 40.5806 9.21695 40.6899C9.03376 40.7992 8.88306 40.9499 8.77373 41.1508C8.66441 41.3518 8.61417 41.5822 8.61417 41.8452C8.61417 42.0855 8.66441 42.3062 8.76487 42.5071C8.86533 42.708 9.00421 42.8676 9.19627 42.9769C9.37651 43.0981 9.59812 43.1601 9.83746 43.1601Z" stroke="white" stroke-width="0.0413671"/>
<path d="M14.1458 42.1648L12.7305 39.928H13.5933L14.5447 41.5649L15.5109 39.928H16.3442L14.917 42.1648V43.7603H14.1458V42.1648Z" fill="white"/>
<path d="M14.1458 42.1648L12.7305 39.928H13.5933L14.5447 41.5649L15.5109 39.928H16.3442L14.917 42.1648V43.7603H14.1458V42.1648Z" stroke="white" stroke-width="0.0413671"/>
<path d="M19.2527 43.8221C18.8508 43.8221 18.4992 43.7423 18.1978 43.5916C17.8876 43.4291 17.6453 43.2104 17.4739 42.9091C17.3055 42.6077 17.2139 42.2649 17.2139 41.8631C17.2139 41.4819 17.2936 41.151 17.465 40.8496C17.6364 40.5511 17.8757 40.3088 18.1978 40.1375C18.5199 39.969 18.8804 39.8774 19.2911 39.8774C19.5038 39.8774 19.7136 39.907 19.9352 39.9572C20.1568 40.0193 20.3371 40.0872 20.4966 40.1788L20.3666 40.8318C19.9943 40.6486 19.6427 40.56 19.3029 40.56C19.0517 40.56 18.8301 40.6102 18.6292 40.7196C18.4283 40.82 18.2776 40.9707 18.1683 41.1716C18.056 41.3637 17.9969 41.5942 17.9969 41.8631C17.9969 42.256 18.118 42.5663 18.3485 42.7968C18.5908 43.0272 18.9011 43.1484 19.3029 43.1484C19.4713 43.1484 19.6634 43.1188 19.8643 43.0686C20.0652 43.0184 20.2455 42.9475 20.4257 42.8588L20.5055 43.5296C20.3371 43.63 20.1362 43.7009 19.9145 43.76C19.7048 43.7925 19.4713 43.8221 19.2527 43.8221Z" fill="white"/>
<path d="M19.2527 43.8221C18.8508 43.8221 18.4992 43.7423 18.1978 43.5916C17.8876 43.4291 17.6453 43.2104 17.4739 42.9091C17.3055 42.6077 17.2139 42.2649 17.2139 41.8631C17.2139 41.4819 17.2936 41.151 17.465 40.8496C17.6364 40.5511 17.8757 40.3088 18.1978 40.1375C18.5199 39.969 18.8804 39.8774 19.2911 39.8774C19.5038 39.8774 19.7136 39.907 19.9352 39.9572C20.1568 40.0193 20.3371 40.0872 20.4966 40.1788L20.3666 40.8318C19.9943 40.6486 19.6427 40.56 19.3029 40.56C19.0517 40.56 18.8301 40.6102 18.6292 40.7196C18.4283 40.82 18.2776 40.9707 18.1683 41.1716C18.056 41.3637 17.9969 41.5942 17.9969 41.8631C17.9969 42.256 18.118 42.5663 18.3485 42.7968C18.5908 43.0272 18.9011 43.1484 19.3029 43.1484C19.4713 43.1484 19.6634 43.1188 19.8643 43.0686C20.0652 43.0184 20.2455 42.9475 20.4257 42.8588L20.5055 43.5296C20.3371 43.63 20.1362 43.7009 19.9145 43.76C19.7048 43.7925 19.4713 43.8221 19.2527 43.8221Z" stroke="white" stroke-width="0.0413671"/>
<path d="M22.0039 39.928H24.5509V40.5692H22.7544V41.494H24.3411V42.1352H22.7544V43.1192H24.6219V43.7603H22.0039V39.928Z" fill="white"/>
<path d="M22.0039 39.928H24.5509V40.5692H22.7544V41.494H24.3411V42.1352H22.7544V43.1192H24.6219V43.7603H22.0039V39.928Z" stroke="white" stroke-width="0.0413671"/>
<path fill-rule="evenodd" clip-rule="evenodd" d="M3.94531 3.46533H5.2011C5.64136 3.46533 5.99298 3.57761 6.24414 3.7874C6.4953 4.00901 6.62531 4.29858 6.62531 4.67975C6.62531 4.91318 6.56621 5.11115 6.45393 5.29435C6.3446 5.47459 6.18505 5.62528 5.9723 5.73461L7.00648 7.30952H6.13481L5.31043 5.92667C5.25133 5.92667 5.2011 5.93554 5.17155 5.93554C5.13018 5.93554 5.08882 5.93554 5.05927 5.93554H4.68697V7.30952H3.94531V3.46533ZM4.68697 5.3239H5.07109C5.60295 5.3239 5.86297 5.11115 5.86297 4.70043C5.86297 4.49951 5.80388 4.34881 5.67091 4.24835C5.5409 4.14789 5.35081 4.09766 5.10064 4.09766H4.69878L4.68697 5.3239Z" fill="white"/>
<path d="M3.94531 3.46533H5.2011C5.64136 3.46533 5.99298 3.57761 6.24414 3.7874C6.4953 4.00901 6.62531 4.29858 6.62531 4.67975C6.62531 4.91318 6.56621 5.11115 6.45393 5.29435C6.3446 5.47459 6.18505 5.62528 5.9723 5.73461L7.00648 7.30952H6.13481L5.31043 5.92667C5.25133 5.92667 5.2011 5.93554 5.17155 5.93554C5.13018 5.93554 5.08882 5.93554 5.05927 5.93554H4.68697V7.30952H3.94531V3.46533ZM4.68697 5.3239H5.07109C5.60295 5.3239 5.86297 5.11115 5.86297 4.70043C5.86297 4.49951 5.80388 4.34881 5.67091 4.24835C5.5409 4.14789 5.35081 4.09766 5.10064 4.09766H4.69878L4.68697 5.3239Z" stroke="white" stroke-width="0.0413671"/>
<path fill-rule="evenodd" clip-rule="evenodd" d="M10.0679 7.38936C9.69855 7.38936 9.3558 7.30958 9.05441 7.14116C8.74416 6.96978 8.50186 6.73931 8.32162 6.4261C8.14138 6.12471 8.05273 5.77605 8.05273 5.38306C8.05273 5.02257 8.13251 4.69164 8.30094 4.39025C8.47231 4.08886 8.71461 3.84657 9.02486 3.65746C9.3361 3.47623 9.68772 3.38562 10.0797 3.38562C10.4491 3.38562 10.7918 3.4654 11.1021 3.63678C11.4153 3.80816 11.6546 4.03863 11.8349 4.34888C12.0151 4.65027 12.1067 5.00189 12.1067 5.39488C12.1067 5.75536 12.0269 6.0863 11.8556 6.38769C11.6842 6.68908 11.4448 6.94023 11.1316 7.12048C10.8125 7.30072 10.4609 7.38936 10.0679 7.38936ZM10.0679 6.70681C10.2984 6.70681 10.5111 6.65657 10.6914 6.54725C10.8834 6.43792 11.0223 6.28723 11.1316 6.0863C11.2439 5.88537 11.2941 5.6549 11.2941 5.39488C11.2941 5.15259 11.2439 4.93098 11.1434 4.73005C11.043 4.52912 10.8923 4.36957 10.712 4.26024C10.52 4.13909 10.3102 4.08 10.0679 4.08C9.83743 4.08 9.6365 4.13023 9.4474 4.23956C9.26715 4.34888 9.11646 4.49958 9.00418 4.7005C8.89485 4.90143 8.84462 5.1319 8.84462 5.39488C8.84462 5.6352 8.89485 5.85583 8.99531 6.05675C9.09578 6.25768 9.23465 6.41724 9.42671 6.52656C9.61582 6.64771 9.82856 6.70681 10.0679 6.70681Z" fill="white"/>
<path d="M10.0679 7.38936C9.69855 7.38936 9.3558 7.30958 9.05441 7.14116C8.74416 6.96978 8.50186 6.73931 8.32162 6.4261C8.14138 6.12471 8.05273 5.77605 8.05273 5.38306C8.05273 5.02257 8.13251 4.69164 8.30094 4.39025C8.47231 4.08886 8.71461 3.84657 9.02486 3.65746C9.3361 3.47623 9.68772 3.38562 10.0797 3.38562C10.4491 3.38562 10.7918 3.4654 11.1021 3.63678C11.4153 3.80816 11.6546 4.03863 11.8349 4.34888C12.0151 4.65027 12.1067 5.00189 12.1067 5.39488C12.1067 5.75536 12.0269 6.0863 11.8556 6.38769C11.6842 6.68908 11.4448 6.94023 11.1316 7.12048C10.8125 7.30072 10.4609 7.38936 10.0679 7.38936ZM10.0679 6.70681C10.2984 6.70681 10.5111 6.65657 10.6914 6.54725C10.8834 6.43792 11.0223 6.28723 11.1316 6.0863C11.2439 5.88537 11.2941 5.6549 11.2941 5.39488C11.2941 5.15259 11.2439 4.93098 11.1434 4.73005C11.043 4.52912 10.8923 4.36957 10.712 4.26024C10.52 4.13909 10.3102 4.08 10.0679 4.08C9.83743 4.08 9.6365 4.13023 9.4474 4.23956C9.26715 4.34888 9.11646 4.49958 9.00418 4.7005C8.89485 4.90143 8.84462 5.1319 8.84462 5.39488C8.84462 5.6352 8.89485 5.85583 8.99531 6.05675C9.09578 6.25768 9.23465 6.41724 9.42671 6.52656C9.61582 6.64771 9.82856 6.70681 10.0679 6.70681Z" stroke="white" stroke-width="0.0413671"/>
<path d="M13.6006 3.46533H14.3747V6.67719H16.121V7.30952H13.6006V3.46533Z" fill="white"/>
<path d="M13.6006 3.46533H14.3747V6.67719H16.121V7.30952H13.6006V3.46533Z" stroke="white" stroke-width="0.0413671"/>
<path d="M17.6455 3.46533H18.4197V6.67719H20.1659V7.30952H17.6455V3.46533Z" fill="white"/>
<path d="M17.6455 3.46533H18.4197V6.67719H20.1659V7.30952H17.6455V3.46533Z" stroke="white" stroke-width="0.0413671"/>
<path d="M22.8176 7.38932C22.5753 7.38932 22.334 7.35977 22.0937 7.30067C21.8544 7.23862 21.6623 7.15884 21.5234 7.0702L21.6032 6.40833C21.7628 6.50879 21.9548 6.59743 22.1735 6.65653C22.3951 6.71858 22.596 6.74813 22.797 6.74813C23.0274 6.74813 23.2077 6.70676 23.3377 6.61812C23.4706 6.52652 23.5297 6.40833 23.5297 6.25763C23.5297 6.12467 23.4795 6.01534 23.3702 5.93556C23.2579 5.85578 23.057 5.76418 22.7674 5.67554C22.3449 5.54257 22.0553 5.38301 21.8721 5.20277C21.6928 5.02154 21.6032 4.78023 21.6032 4.47885C21.6032 4.26019 21.6534 4.07995 21.7628 3.90857C21.8731 3.74704 22.0336 3.61605 22.2444 3.51558C22.4542 3.42694 22.6965 3.37671 22.9772 3.37671C23.1781 3.37671 23.379 3.40626 23.5888 3.45649C23.7996 3.50574 23.9808 3.57567 24.1325 3.66628L24.0202 4.31042C23.8814 4.23064 23.71 4.15973 23.5297 4.1095C23.3495 4.05927 23.1693 4.02972 23.0067 4.02972C22.7881 4.02972 22.6256 4.06813 22.5162 4.14791C22.404 4.23064 22.3537 4.33997 22.3537 4.47885C22.3537 4.57044 22.3744 4.65022 22.4158 4.70046C22.4542 4.76251 22.5251 4.81274 22.6256 4.86297C22.726 4.9132 22.856 4.96048 23.0363 5.02253C23.5002 5.1614 23.8193 5.33278 24.0114 5.52484C24.2034 5.71395 24.3039 5.95624 24.3039 6.25763C24.3039 6.60925 24.1709 6.88996 23.9109 7.09088C23.6302 7.28885 23.2697 7.38932 22.8176 7.38932Z" fill="white"/>
<path d="M22.8176 7.38932C22.5753 7.38932 22.334 7.35977 22.0937 7.30067C21.8544 7.23862 21.6623 7.15884 21.5234 7.0702L21.6032 6.40833C21.7628 6.50879 21.9548 6.59743 22.1735 6.65653C22.3951 6.71858 22.596 6.74813 22.797 6.74813C23.0274 6.74813 23.2077 6.70676 23.3377 6.61812C23.4706 6.52652 23.5297 6.40833 23.5297 6.25763C23.5297 6.12467 23.4795 6.01534 23.3702 5.93556C23.2579 5.85578 23.057 5.76418 22.7674 5.67554C22.3449 5.54257 22.0553 5.38301 21.8721 5.20277C21.6928 5.02154 21.6032 4.78023 21.6032 4.47885C21.6032 4.26019 21.6534 4.07995 21.7628 3.90857C21.8731 3.74704 22.0336 3.61605 22.2444 3.51558C22.4542 3.42694 22.6965 3.37671 22.9772 3.37671C23.1781 3.37671 23.379 3.40626 23.5888 3.45649C23.7996 3.50574 23.9808 3.57567 24.1325 3.66628L24.0202 4.31042C23.8814 4.23064 23.71 4.15973 23.5297 4.1095C23.3495 4.05927 23.1693 4.02972 23.0067 4.02972C22.7881 4.02972 22.6256 4.06813 22.5162 4.14791C22.404 4.23064 22.3537 4.33997 22.3537 4.47885C22.3537 4.57044 22.3744 4.65022 22.4158 4.70046C22.4542 4.76251 22.5251 4.81274 22.6256 4.86297C22.726 4.9132 22.856 4.96048 23.0363 5.02253C23.5002 5.1614 23.8193 5.33278 24.0114 5.52484C24.2034 5.71395 24.3039 5.95624 24.3039 6.25763C24.3039 6.60925 24.1709 6.88996 23.9109 7.09088C23.6302 7.28885 23.2697 7.38932 22.8176 7.38932Z" stroke="white" stroke-width="0.0413671"/>
</svg>
