<svg width="94" height="25" viewBox="0 0 94 25" fill="none" xmlns="http://www.w3.org/2000/svg">
<path fill-rule="evenodd" clip-rule="evenodd" d="M24.4045 0.791222C24.4507 0.77968 24.5672 0.82585 24.5902 0.87254L24.8919 1.94065C24.9732 2.20768 25.2402 2.31208 25.5419 2.38133L25.9595 3.98297C26.1683 4.37748 26.5628 4.59782 27.0155 4.76045L28.0018 6.29232C28.2688 6.44289 28.5936 6.72146 28.6518 7.10443C28.5353 7.97529 28.7331 8.8687 28.2337 9.64618C27.7463 9.78573 27.6765 10.4467 27.3518 10.8066L27.0501 11.4566L25.6342 12.1066C25.4831 12.072 25.4831 11.8632 25.3095 11.828L24.81 12.1066L23.5914 11.6308L23.5331 11.1319L22.9298 10.3077C22.9298 10.2385 22.9875 10.1335 22.9875 10.0528C22.9529 10.0297 22.9183 9.97144 22.848 9.92475C22.6392 9.92475 22.465 10.2264 22.3491 10.389C22.3029 10.4703 22.1634 10.4703 22.0123 10.4703L21.2117 9.64618C20.5617 9.48355 19.7722 9.43738 19.1573 9.86652C18.6117 9.86652 18.2634 10.1918 18.02 10.6325C17.4167 10.8182 16.6507 10.9693 16.2095 11.561C15.8381 11.7814 15.4782 11.6539 15.1299 11.561C15.1299 11.561 15.0952 11.5028 15.0601 11.4566L15.2227 11.039C15.0947 10.0061 13.981 9.59949 13.9227 8.49728C13.8881 8.31156 13.6672 8.2187 13.5629 8.09122L13.4238 7.76649C13.4815 7.16318 13.7255 6.75661 14.2359 6.39672C14.8392 6.17639 15.2227 5.90936 15.7101 5.67695C16.1628 5.29398 16.3837 4.75993 16.3837 4.30771C16.8128 4.05222 17.1727 3.55331 17.5326 3.07749C17.7645 2.91486 17.9156 2.72915 18.1826 2.75223L18.7628 3.06595L19.0876 2.91486L19.4936 2.03298C19.4936 1.94013 19.5167 1.83573 19.5749 1.7775C19.8189 1.70825 20.1436 1.6731 20.3991 1.44122H21.8497C21.9194 1.47585 22.0007 1.51047 22.0123 1.61539L21.5365 2.42802C21.7804 3.25219 22.9524 3.17087 23.4282 3.7511C23.5557 3.82087 23.6716 3.79726 23.7535 3.82087C23.893 3.79778 24.0205 3.65824 24.0898 3.49561L24.3222 0.826372L24.4045 0.791222ZM25.5419 12.8967C25.7853 13.1978 26.2617 13.0126 26.6677 13.0126C26.8303 13.1522 26.6331 13.5115 26.5051 13.6275C26.2963 13.7555 26.215 13.9186 26.0292 13.9648L25.6347 13.895L25.449 12.8972L25.5419 12.8967Z" fill="black"/>
<path fill-rule="evenodd" clip-rule="evenodd" d="M2.05409 23.5047L4.52607 17.9102L5.17606 16.2042H6.12771L9.08706 22.7728C9.42386 23.5629 9.65574 24.0498 9.79529 24.119C9.86506 24.1772 10.1436 24.2696 10.5381 24.3047V24.7464C9.8627 24.686 9.18497 24.6548 8.50684 24.6531C7.83376 24.6531 7.14914 24.6877 6.46399 24.7464V24.3047C6.60354 24.3047 6.87004 24.2701 7.18376 24.2701C7.31124 24.2355 7.41564 24.0844 7.41564 23.8877C7.41564 23.7833 7.38101 23.6899 7.38101 23.6552L6.76617 22.1234H3.50464C3.47002 22.1931 3.33047 22.5063 3.16784 22.9586C2.99367 23.4465 2.88927 23.7486 2.88927 23.853C2.88927 24.0151 2.97059 24.1431 3.09807 24.2129C3.16784 24.2355 3.43487 24.2701 3.91069 24.2701V24.7464C3.57389 24.7464 3.27224 24.7118 3.06344 24.7118C2.86619 24.7118 2.58762 24.6882 2.32059 24.6882C2.07665 24.6882 1.85631 24.7118 1.64751 24.7118C1.43871 24.7118 1.20684 24.7464 0.962891 24.7464V24.3047C1.50849 24.3052 1.88044 24.0151 2.05409 23.5047ZM5.10681 18.2937L3.78374 21.4508H6.46504L5.10681 18.2937ZM12.5117 22.5766V17.98C12.5117 17.4003 12.454 17.0058 12.3491 16.936C12.2447 16.8426 11.9084 16.7498 11.3628 16.7498V16.2745C11.7343 16.2745 12.3145 16.3091 13.0689 16.3327C14.1134 16.3091 14.926 16.2745 15.4716 16.2745V16.7498C15.3436 16.7498 15.17 16.7844 15.0304 16.7844C14.9029 16.7844 14.7634 16.819 14.6941 16.819C14.5892 16.819 14.4853 16.8772 14.4617 16.936C14.3925 17.0404 14.3573 17.3305 14.3573 17.7135V21.4503C14.3573 22.2503 14.4853 22.8662 14.7288 23.2607C15.0656 23.6899 15.7386 23.9228 16.6672 23.9228C17.4798 23.9228 18.1298 23.725 18.4661 23.3767C18.8722 22.9937 19.081 22.3201 19.081 21.3921V17.5855C19.081 17.2954 19.0112 17.075 18.9414 16.936C18.9167 16.903 18.8854 16.8755 18.8494 16.8554C18.8134 16.8352 18.7737 16.8228 18.7326 16.819C18.6744 16.819 18.5354 16.7844 18.431 16.7844C18.3381 16.7844 18.1524 16.7498 17.9551 16.7498V16.2745C18.1524 16.2745 18.3612 16.3091 18.5007 16.3091C18.6403 16.3091 18.8722 16.3327 19.1507 16.3327C19.9634 16.3091 20.5782 16.2745 20.9727 16.2745V16.7498C20.4387 16.7498 20.0557 16.8431 19.998 16.936C19.9282 17.0404 19.8936 17.3305 19.8936 17.7135V21.6706C19.8936 22.8316 19.5222 23.725 18.7678 24.2355C18.4456 24.4687 18.0776 24.6311 17.6881 24.7118C17.2123 24.8388 16.7018 24.9085 16.2255 24.9085C15.2738 24.9085 14.4266 24.7118 13.6722 24.3635C12.9178 24.0151 12.5117 23.4118 12.5117 22.5766ZM22.2727 18.8508C22.2727 17.9102 22.5744 17.202 23.1897 16.7844C23.8392 16.3327 24.7216 16.0998 25.743 16.0998C26.5556 16.0998 27.3678 16.2739 28.1458 16.5289L28.2501 16.6921C28.1221 17.075 28.0529 17.6552 28.0529 18.4327H27.5068L27.437 17.4223C27.0309 16.9706 26.4156 16.7267 25.6732 16.7267C25.4293 16.7267 25.1623 16.7839 24.9189 16.8426C24.6518 16.9124 24.4084 17.1102 24.2106 17.2954C24.0018 17.5267 23.909 17.8404 23.909 18.2349C23.909 18.6767 24.0711 18.9668 24.3848 19.0948C24.6864 19.2333 25.3018 19.4311 26.1491 19.6162C26.9963 19.814 27.6809 20.1041 28.0875 20.4173C28.5282 20.7421 28.7721 21.2525 28.7721 21.9602C28.7721 22.6107 28.5633 23.191 28.2265 23.5965C27.8782 24.0492 27.3672 24.3976 26.8337 24.5954C26.2535 24.7685 25.6035 24.908 24.9535 24.908C24.01 24.9056 23.076 24.7205 22.2029 24.3629C22.2727 23.98 22.3771 23.2602 22.3771 22.2278H22.8881L23.0156 23.2843C23.1551 23.5047 23.4331 23.725 23.8046 23.9228C24.1913 24.1263 24.6214 24.2336 25.0584 24.2355C25.6386 24.2355 26.1496 24.0849 26.521 23.8184C26.9271 23.5634 27.1359 23.1563 27.1359 22.6464C27.1359 22.1937 26.9271 21.8689 26.5556 21.7058C26.1842 21.5201 25.5694 21.3228 24.8265 21.1371C24.0375 20.9393 23.399 20.6492 22.9809 20.3245C22.5744 19.9997 22.3073 19.4893 22.2727 18.8508ZM33.1359 23.0635V17.0409H31.2562C30.9892 17.0409 30.7919 17.1107 30.7106 17.203C30.6875 17.2728 30.6062 17.6558 30.5826 18.2942H30.037C30.037 17.6558 29.9672 16.9717 29.8974 16.3332L29.9672 16.275C30.4777 16.275 30.9886 16.3096 31.3947 16.3096C31.8007 16.3096 32.4161 16.3332 33.1007 16.3332C35.3062 16.3096 37.0002 16.275 38.1265 16.275L38.1612 16.3332C38.1034 17.2382 38.0221 17.9113 38.0221 18.2942H37.5112C37.5112 17.7481 37.4534 17.3657 37.3485 17.203C37.2788 17.1107 37.0815 17.0409 36.7332 17.0409H34.9579V23.3546C34.9579 23.7492 35.0046 24.0157 35.0623 24.0854C35.1436 24.1437 35.3062 24.2134 35.5381 24.2134C35.7815 24.2134 35.9793 24.2706 36.0837 24.2706V24.747C35.5381 24.747 35.1089 24.7123 34.8304 24.7123C34.5167 24.7123 34.1452 24.6887 33.7743 24.6887C33.5073 24.6887 33.2057 24.7123 32.9617 24.7123C32.7298 24.7123 32.3815 24.747 31.9754 24.747V24.2706C32.5787 24.2706 32.9271 24.1783 32.9969 24.0849C33.0661 24.0151 33.1359 23.6322 33.1359 23.0635ZM42.6183 20.2311H42.8502C43.2677 20.2311 43.6743 20.1041 44.0804 19.8366C44.4864 19.5816 44.7304 19.0602 44.7304 18.4327C44.7304 17.98 44.5562 17.5855 44.2199 17.33C43.8531 17.0601 43.41 16.9137 42.9545 16.9119C42.5485 16.9119 42.2463 16.9701 42.1419 17.0399V18.6179L42.1304 20.2306L42.6183 20.2311ZM42.1309 21.1135L42.1424 23.3541C42.1424 23.7833 42.1771 24.0498 42.2468 24.0849C42.3166 24.1431 42.4441 24.2129 42.5836 24.2129C42.7578 24.2129 43.0012 24.2701 43.2336 24.2701V24.7464C42.8276 24.7464 42.4792 24.7118 42.2468 24.7118C41.9798 24.7118 41.6666 24.6882 41.3644 24.6882C41.0166 24.6882 40.6447 24.7118 40.3782 24.7118C40.0765 24.7118 39.6238 24.7464 39.148 24.7464V24.2701C39.4265 24.2701 39.6936 24.2129 39.8331 24.2129C39.9726 24.2129 40.1001 24.1431 40.1348 24.0849C40.2045 24.0151 40.2743 23.6558 40.2743 23.0635V17.9805C40.2743 17.4234 40.2045 17.0755 40.1348 16.9365C40.1001 16.8783 39.7633 16.8195 39.148 16.7503V16.275C39.4265 16.275 39.7282 16.3096 39.9375 16.3096C40.1694 16.3096 40.5062 16.3332 40.8891 16.3332C42.4441 16.3096 43.5699 16.275 44.1501 16.275C44.6957 16.275 45.1716 16.3684 45.5084 16.4953C45.8567 16.6585 46.1232 16.8437 46.2628 17.0414C46.3902 17.2382 46.5298 17.4585 46.5298 17.6211C46.5298 17.8069 46.5644 17.981 46.5644 18.0964C46.5644 18.619 46.3902 19.0953 46.0188 19.4898C45.6474 19.8723 44.7886 20.4058 44.2545 20.5689L46.5644 23.1222C46.7732 23.3662 46.9358 23.5975 47.0402 23.7255C47.1446 23.8536 47.249 23.9805 47.3188 24.0157C47.4111 24.1201 47.6441 24.2134 47.9226 24.2706V24.747C47.6441 24.747 47.3765 24.7123 47.2144 24.7123C47.0056 24.7123 46.7732 24.6887 46.5644 24.6887C46.3902 24.6887 46.193 24.7123 46.054 24.7123C45.9144 24.7123 45.671 24.747 45.4386 24.747L42.1309 21.1135ZM49.7677 23.5047L52.2512 17.9102L52.9007 16.2042H53.8413L56.8007 22.7728C57.149 23.5629 57.3804 24.0498 57.5199 24.119C57.5782 24.1772 57.8683 24.2696 58.2628 24.3047V24.7464C57.5836 24.6863 56.9022 24.6551 56.2205 24.6531C55.5474 24.6531 54.8617 24.6877 54.1886 24.7464V24.3047C54.3166 24.3047 54.5952 24.2701 54.9089 24.2701C55.0359 24.2355 55.1403 24.0844 55.1403 23.8877C55.1403 23.7833 55.1057 23.6899 55.1057 23.6552L54.4908 22.1234H51.2293C51.1947 22.1931 51.0551 22.5063 50.892 22.9586C50.7188 23.4465 50.6144 23.7486 50.6144 23.853C50.6144 24.0151 50.6952 24.1431 50.8232 24.2129C50.892 24.2355 51.1595 24.2701 51.6348 24.2701V24.7464C51.2985 24.7464 50.9974 24.7118 50.7886 24.7118C50.5908 24.7118 50.3007 24.6882 50.0337 24.6882C49.8023 24.6882 49.5694 24.7118 49.3606 24.7118C49.1518 24.7118 48.9199 24.7464 48.676 24.7464V24.3047C49.2216 24.3052 49.5935 24.0151 49.7677 23.5047ZM52.8315 18.2937L51.5089 21.4508H54.1892L52.8315 18.2937ZM59.2496 16.2739C59.6562 16.2739 60.4105 16.3086 61.432 16.3322C62.2084 16.3086 62.8594 16.2739 63.3347 16.2739V16.7492C63.265 16.7492 63.1034 16.819 62.8243 16.819C62.5457 16.8426 62.3479 16.9124 62.3138 16.9706C62.2792 17.0404 62.2441 17.2954 62.2441 17.7135V23.98C62.9985 23.98 63.6364 24.0146 64.0424 24.0146C64.8551 24.0146 65.3776 23.9223 65.5045 23.8179L65.7721 22.541H66.2946L66.1551 24.6179L66.0853 24.6877C65.4694 24.7113 64.5188 24.7459 63.3688 24.7459C62.754 24.7459 61.8023 24.7113 60.5716 24.6877C60.3749 24.6877 60.0375 24.7113 59.6892 24.7113V24.4674C60.0375 24.3042 60.2353 24.1426 60.27 24.0844C60.3397 23.98 60.3743 23.7833 60.3743 23.5278V18.0031C60.3743 17.3646 60.3046 17.0052 60.2348 16.9355C60.165 16.8772 59.7931 16.8185 59.248 16.7492V16.2739H59.2496ZM67.4897 16.7844V16.2739C67.827 16.2739 68.1281 16.3086 68.4188 16.3086C68.6853 16.3086 69.0446 16.3322 69.4979 16.3322C69.9386 16.3322 70.3105 16.3086 70.5891 16.3086C70.8556 16.3086 71.2275 16.2739 71.5633 16.2739V16.7844C71.4363 16.7844 71.2968 16.819 71.1688 16.819C71.0292 16.819 70.8551 16.8426 70.7507 16.8426C70.6583 16.8426 70.5539 16.9124 70.5539 16.9706C70.5193 17.1102 70.4842 17.3651 70.4842 17.7135V23.4811C70.4842 23.7833 70.5188 24.0151 70.5539 24.0844C70.6237 24.1426 70.7853 24.2124 71.0644 24.2124C71.332 24.2124 71.5061 24.2696 71.5633 24.2696V24.7459C71.088 24.7459 70.7281 24.7113 70.4495 24.7113C70.171 24.7113 69.8347 24.6877 69.4979 24.6877C69.1496 24.6877 68.8484 24.7113 68.5809 24.7113C68.3144 24.7113 67.9314 24.7459 67.4897 24.7459V24.2696C67.5941 24.2696 67.7919 24.2124 68.0358 24.2124C68.3144 24.2124 68.4765 24.1426 68.5111 24.0844C68.5809 23.98 68.6155 23.6316 68.6155 23.0866V17.98C68.6155 17.4003 68.5457 17.0404 68.476 16.9706C68.4193 16.8778 68.0358 16.7844 67.4897 16.7844ZM73.7462 23.5047L76.2297 17.9102L76.8792 16.2042H77.8199L80.7792 22.7728C81.1275 23.5629 81.3589 24.0498 81.4984 24.119C81.5567 24.1772 81.8468 24.2696 82.2413 24.3047V24.7464C81.5622 24.6863 80.8808 24.6551 80.199 24.6531C79.5259 24.6531 78.8402 24.6877 78.1671 24.7464V24.3047C78.2952 24.3047 78.5737 24.2701 78.8874 24.2701C79.0144 24.2355 79.1188 24.0844 79.1188 23.8877C79.1188 23.7833 79.0842 23.6899 79.0842 23.6552L78.4693 22.1234H75.2078C75.1732 22.1931 75.0336 22.5063 74.8705 22.9586C74.6973 23.4465 74.5929 23.7486 74.5929 23.853C74.5929 24.0151 74.6627 24.1431 74.8017 24.2129C74.8705 24.2355 75.138 24.2701 75.6133 24.2701V24.7464C75.277 24.7464 74.9749 24.7118 74.7671 24.7118C74.5693 24.7118 74.2792 24.6882 74.0122 24.6882C73.7808 24.6882 73.5479 24.7118 73.3391 24.7118C73.1303 24.7118 72.8984 24.7464 72.6545 24.7464V24.3047C73.2001 24.3052 73.5721 24.0151 73.7462 23.5047ZM76.81 18.2937L75.4874 21.4508H78.1677L76.81 18.2937ZM84.2847 23.0871V17.7481C84.2847 17.2964 84.2149 17.0063 84.1451 16.9365C84.0753 16.8783 83.7385 16.7849 83.1583 16.7503V16.275C83.5303 16.275 84.1451 16.3096 84.9341 16.3332C85.3407 16.3096 85.677 16.275 85.8512 16.275C86.2918 16.8201 86.7682 17.4008 87.2089 17.9113C87.6852 18.4563 88.1259 18.9678 88.5325 19.4316C88.938 19.8723 89.4138 20.3601 89.855 20.8365C90.3224 21.3734 90.802 21.8996 91.2935 22.4145V17.7486C91.2935 17.3662 91.2237 17.1112 91.154 16.9722C91.0852 16.8442 90.7484 16.7508 90.1682 16.7508V16.2755C90.3996 16.2755 90.6435 16.3101 90.8528 16.3101C91.0506 16.3101 91.3281 16.3337 91.6303 16.3337C91.9666 16.3337 92.2688 16.3101 92.4776 16.3101C92.6743 16.3101 92.9182 16.2755 93.1622 16.2755V16.7508C92.7441 16.7508 92.4776 16.8206 92.3732 16.8206C92.2688 16.8206 92.1644 16.914 92.1408 17.0068C92.071 17.1338 92.0364 17.4013 92.0364 17.715C92.0364 18.0975 92.071 18.6546 92.071 19.3629V22.9948C92.071 23.6568 92.1056 24.3063 92.1056 24.8404L92.0012 24.875L90.9111 24.748C90.3078 24.086 89.7852 23.5299 89.4479 23.1579C89.1116 22.7749 88.6704 22.2519 88.1254 21.6376C87.5803 20.9991 87.0814 20.4541 86.6979 20.0013C86.2913 19.5486 85.7462 18.9101 85.0962 18.2019V23.3557C85.0962 23.7266 85.1309 24.0167 85.2006 24.1211C85.2353 24.1793 85.4094 24.2717 85.6413 24.2717C85.8853 24.2717 86.0941 24.3063 86.1864 24.3063V24.748C85.6779 24.6889 85.1665 24.6578 84.6545 24.6546C84.1792 24.6546 83.6677 24.6893 83.1573 24.748V24.3063C83.737 24.3063 84.0743 24.214 84.1441 24.1206C84.2149 24.0151 84.2847 23.6558 84.2847 23.0871ZM37.2793 11.0745V4.79538H35.376C35.109 4.79538 34.9002 4.86463 34.8304 4.95801C34.7958 5.02779 34.726 5.43384 34.6908 6.10692H34.1337C34.1337 5.43384 34.076 4.72613 33.9947 4.05253L34.076 3.9943C34.5864 3.9943 35.109 4.02892 35.5265 4.02892C35.9326 4.02892 36.5595 4.05201 37.2562 4.05201C39.4848 4.02892 41.2139 3.99377 42.3512 3.99377L42.3859 4.05201C42.3276 4.99211 42.2463 5.70034 42.2463 6.10639H41.7359C41.7359 5.52617 41.6661 5.13166 41.5617 4.95749C41.4919 4.86463 41.2831 4.79486 40.9348 4.79486H39.1359V11.3635C39.1359 11.8047 39.171 12.0718 39.2403 12.141C39.3101 12.1987 39.4842 12.2806 39.7276 12.2806C39.9595 12.2806 40.1804 12.3383 40.2848 12.3383V12.8372C39.7276 12.8372 39.2749 12.8026 38.9963 12.8026C38.6947 12.8026 38.3112 12.7679 37.9288 12.7679C37.6502 12.7679 37.3365 12.8026 37.1046 12.8026C36.8727 12.8026 36.5244 12.8372 36.1068 12.8372V12.3383C36.7332 12.3383 37.0815 12.2339 37.1513 12.141C37.2216 12.0723 37.2793 11.6663 37.2793 11.0745ZM43.0941 4.52835V3.99482C43.5468 3.99482 44.3825 4.02945 45.4853 4.05306C46.3089 4.02997 46.9358 3.99482 47.2726 3.99482V4.52888H46.6573C46.5182 4.52888 46.3787 4.58711 46.3089 4.62174C46.2664 4.65218 46.2315 4.69221 46.2073 4.7386C46.1831 4.78499 46.1701 4.83643 46.1694 4.88877C46.1694 5.02831 46.1348 5.26019 46.1348 5.52722V7.84864C46.6221 7.84864 47.4237 7.88326 48.4562 7.88326C49.2452 7.88326 49.8721 7.84864 50.2205 7.84864V5.77117C50.2205 5.16734 50.1858 4.79643 50.1161 4.72666C50.0814 4.65688 49.9765 4.58711 49.9073 4.58711C49.8029 4.58711 49.6633 4.56403 49.5589 4.56403C49.4545 4.56403 49.2452 4.5294 49.0485 4.5294V3.99482C49.4309 3.99482 50.0463 4.02945 50.8468 4.05306C51.9496 4.02997 52.7743 3.99482 53.226 3.99482V4.52888C52.9484 4.52888 52.6693 4.58711 52.5067 4.58711C52.321 4.58711 52.193 4.69151 52.1584 4.79591C52.1237 4.92339 52.0886 5.19042 52.0886 5.52722V11.4695C52.0886 11.8063 52.1232 12.0728 52.193 12.1426C52.2512 12.2003 52.4254 12.2821 52.6693 12.2821C52.9243 12.2821 53.121 12.3399 53.226 12.3399V12.8388C52.5161 12.7738 51.8036 12.7428 51.0908 12.7459C50.4287 12.7459 49.7331 12.769 49.0485 12.8388V12.3399C49.3496 12.3399 49.5935 12.2821 49.7331 12.2821C49.8726 12.2821 50.0117 12.2008 50.0468 12.1777C50.1166 12.108 50.1864 12.0036 50.1864 11.9107C50.1864 11.7712 50.221 11.5393 50.221 11.2376V8.62611C49.8029 8.62611 49.1759 8.59149 48.3523 8.59149C47.3193 8.59149 46.5534 8.62611 46.1353 8.62611V11.342C46.1353 11.7365 46.1699 12.0382 46.2517 12.1426C46.2748 12.2355 46.6578 12.3399 47.2732 12.3399V12.8388C46.7973 12.8388 46.3561 12.8041 46.0314 12.8041C45.7298 12.8041 45.3468 12.7695 44.9984 12.7695C44.6852 12.7695 44.3836 12.8041 44.1281 12.8041C43.8611 12.8041 43.5133 12.8388 43.0951 12.8388V12.3399C43.6523 12.2821 44.0353 12.2003 44.093 12.1772C44.1974 12.1074 44.2787 11.8058 44.2787 11.3415V5.52669C44.2787 5.13218 44.1974 4.83001 44.1276 4.72613C44.0919 4.65636 43.7205 4.56298 43.0941 4.52835ZM54.1776 4.49373V3.99482C54.526 3.99482 54.8622 4.02945 55.1408 4.02945C55.4194 4.02945 55.8375 4.05253 56.2902 4.05253C57.0446 4.02945 58.193 3.9943 59.7133 3.9943H60.4683C60.676 3.9943 60.9199 4.02892 61.1293 4.02892L61.199 4.12178L61.0133 6.00199H60.537C60.4683 5.39816 60.4326 5.06189 60.4326 5.02726C60.4326 4.99264 60.3628 4.92286 60.2941 4.92286C60.1199 4.86463 59.6084 4.79538 58.843 4.79538H57.2177V7.88274H57.6359C57.7754 7.88274 57.9832 7.91736 58.1925 7.91736C58.3903 7.91736 58.7732 7.88274 59.1903 7.88274C59.3645 7.88274 59.504 7.84811 59.5622 7.78988C59.643 7.72063 59.748 7.58108 59.748 7.45308C59.748 7.31406 59.7826 7.11628 59.7826 6.90748H60.3287V7.45308C60.3287 7.61571 60.2941 7.88274 60.2941 8.18439V8.98547C60.2941 9.19427 60.3287 9.4613 60.3287 9.6937H59.7826C59.7826 9.33382 59.7128 9.02062 59.643 8.85799C59.5622 8.66074 59.3293 8.55634 59.0518 8.55634H58.2853C58.0178 8.55634 57.6359 8.59097 57.2177 8.62559V12.0377C57.4963 12.0377 57.9134 12.0723 58.4595 12.0723C58.5639 12.0723 58.7381 12.0377 58.9474 12.0377C59.9452 12.0377 60.5029 11.9679 60.5365 11.9102C60.5365 11.7706 60.6062 11.6316 60.6062 11.5041C60.6062 11.3646 60.7106 11.0745 60.815 10.68H61.3375C61.3375 11.0168 61.3029 11.3415 61.3029 11.6085C61.2683 11.8756 61.1985 12.2816 61.1985 12.7113L61.1287 12.769C60.3287 12.8036 59.7128 12.8388 59.3293 12.8388C58.6337 12.8388 57.5661 12.8041 56.1848 12.769C55.4881 12.8036 54.9304 12.8388 54.6293 12.8388V12.5486C54.7689 12.4789 54.9079 12.3745 54.9304 12.3745C55.0029 12.344 55.0668 12.2963 55.1167 12.2355C55.1864 12.1772 55.2436 12.1075 55.2788 12.0382C55.3139 11.969 55.3485 11.5041 55.3485 10.6805V5.79425C55.3485 5.32997 55.3139 4.99369 55.2788 4.86568C55.2442 4.72666 55.1392 4.58711 55.082 4.58711C55.0138 4.58659 54.6655 4.52835 54.1776 4.49373Z" fill="black"/>
</svg>
