<svg width="84" height="27" viewBox="0 0 84 27" fill="none" xmlns="http://www.w3.org/2000/svg">
<path d="M66.5776 10.831C66.5776 11.647 66.8413 12.2794 67.2292 12.8608C67.4826 13.228 67.6739 13.6513 67.7515 13.9573C67.829 14.304 68.0204 15.1404 66.9809 15.1557C66.3035 15.171 64.6435 14.5947 63.2938 12.9934C62.2596 11.7082 61.6442 10.0814 61.6442 8.30662C61.6442 4.15533 65.0314 0.789429 69.2098 0.789429C73.3881 0.789429 76.7701 4.15533 76.7701 8.30662C76.7701 10.0814 76.1548 11.7082 75.1205 12.9934C73.776 14.5947 72.1108 15.171 71.4334 15.1557C70.394 15.1404 70.5801 14.304 70.6681 13.9573C70.7456 13.6513 70.937 13.228 71.1852 12.8608C71.573 12.2794 71.8368 11.647 71.8368 10.831C71.8368 9.37758 70.4405 8.32701 69.2098 8.32701C67.979 8.32701 66.5828 9.37758 66.5776 10.831ZM82.8929 17.8229C82.3396 18.5879 77.2149 24.5701 75.86 26.1153C75.6583 26.3397 75.2446 26.6406 74.712 26.5335C74.0397 26.3907 73.2744 25.6053 72.9848 25.0392C72.7624 24.6262 72.6124 24.2947 72.4728 23.7031C71.9867 21.6019 72.4987 19.5824 73.476 18.2462C74.4069 16.9815 75.7566 16.0125 76.8477 15.5892C77.6803 15.2628 79.0662 14.9007 80.6124 15.1302C81.7294 15.2985 82.2723 15.6708 82.5826 15.9207C83.0842 16.3338 83.441 17.0631 82.8929 17.8229ZM64.9435 18.2462C65.9157 19.5824 66.4328 21.6019 65.9467 23.7031C65.8019 24.2947 65.6571 24.6262 65.4296 25.0392C65.14 25.6053 64.3798 26.3907 63.7024 26.5335C63.1697 26.6406 62.756 26.3397 62.5544 26.1153C61.2047 24.5701 56.0799 18.5879 55.5266 17.8229C54.9785 17.0631 55.3353 16.3338 55.8369 15.9207C56.142 15.6708 56.6902 15.2985 57.8071 15.1302C59.3585 14.9007 60.7392 15.2628 61.5718 15.5892C62.663 16.0125 64.0126 16.9815 64.9435 18.2462Z" fill="black"/>
<path d="M53.4555 21.954V24.9527C53.4555 25.5494 53.0936 25.8451 52.5557 25.8451H39.2087C38.6606 25.8451 38.2883 25.5239 38.2883 24.9323V24.4223C38.2883 23.5196 38.3813 22.2192 39.3122 20.934L41.8151 17.6905H48.8324L46.2416 21.0564H52.5557C53.0936 21.0564 53.4555 21.3522 53.4555 21.954ZM17.9187 16.4767H5.79728C7.70547 13.4525 9.41198 10.7649 9.41198 10.7649C10.3273 9.29612 11.9666 8.32715 13.8231 8.32715H15.6123C16.1139 8.32715 16.5018 8.60254 16.6 9.16862L17.9187 16.4767ZM36.5662 16.4818H31.395L32.0879 17.6956H36.5662V24.9527C36.5662 25.5494 36.2042 25.8502 35.6613 25.8502H33.0032C31.6587 25.8197 30.4952 25.3913 29.8126 24.2744L26.3375 18.1189L26.3427 24.9527C26.3427 25.5494 25.9807 25.8502 25.4429 25.8502H21.7971C21.2645 25.8502 20.9025 25.5494 20.9025 24.9527V17.6956H26.11L25.417 16.4818H20.9025V9.21962C20.9025 8.61784 21.2645 8.32715 21.7971 8.32715H24.4862C25.8359 8.35265 26.9942 8.78104 27.682 9.903L31.1261 16.0126V9.21962C31.1261 8.61784 31.4932 8.32715 32.031 8.32715H35.6613C36.2042 8.32715 36.5662 8.61784 36.5662 9.21962V16.4818ZM19.4132 24.8201C19.4701 25.1516 19.4184 25.376 19.2994 25.5239C19.1236 25.733 18.9323 25.8502 18.5548 25.8502H14.4384C13.9265 25.8502 13.5748 25.5698 13.4714 25.019C13.4094 24.662 12.3027 18.5218 12.1527 17.6956H18.1359L19.4132 24.8201ZM5.03193 17.6956H11.4339L6.71259 25.1363C6.44885 25.5647 5.96276 25.8502 5.42495 25.8502H1.14832C0.874244 25.8502 0.615681 25.7228 0.501914 25.5035C0.40366 25.3148 0.40366 25.0241 0.563969 24.7538C0.620853 24.6722 2.83415 21.1686 5.03193 17.6956ZM38.4331 12.2183V9.21962C38.4331 8.62294 38.795 8.32715 39.3329 8.32715H52.3851C52.9384 8.32715 53.3004 8.65354 53.3004 9.24512V10.4028C53.3004 11.2137 53.1194 12.1316 52.3282 13.1567L49.7684 16.4767H42.7562L45.3522 13.1057H39.3329C38.795 13.1057 38.4331 12.815 38.4331 12.2183Z" fill="black"/>
</svg>
