<svg width="157" height="14" viewBox="0 0 157 14" fill="none" xmlns="http://www.w3.org/2000/svg">
<path fill-rule="evenodd" clip-rule="evenodd" d="M0.855485 10.0096C0.822266 9.89253 0.822266 9.79212 0.822266 9.70983C0.822266 9.52637 0.888704 9.44257 1.02233 9.44257C1.30545 9.44257 1.30545 9.92575 1.70559 10.7253C2.22199 11.7754 3.32124 12.4081 4.60319 12.4081C6.3185 12.4081 7.38452 11.3761 7.38452 9.87592C7.38452 8.41051 6.45213 7.91072 4.6198 7.37771C2.28767 6.69521 1.18843 5.9123 1.18843 4.03014C1.18843 2.28086 2.60401 0.9823 4.85309 0.9823C6.1524 0.9823 6.90209 1.49795 7.13462 1.49795C7.33394 1.49795 7.48418 1.31449 7.58459 1.31449C7.63442 1.31449 7.68425 1.39829 7.70086 1.54853L7.93414 3.58017C7.95075 3.66398 7.95075 3.73041 7.95075 3.79685C7.95075 3.94709 7.90093 4.03014 7.75069 4.03014C7.43435 4.03014 7.50079 3.59678 7.13462 3.03055C6.45137 1.94791 5.70243 1.48134 4.52014 1.48134C3.0872 1.48134 2.05514 2.36391 2.05514 3.54695C2.05514 4.8961 2.93771 5.24565 4.50353 5.7462C5.66922 6.11237 6.60237 6.41209 7.18521 6.9451C7.91829 7.61099 8.25124 8.44449 8.25124 9.52637C8.25124 11.6086 6.75261 13.0083 4.15398 13.0083C2.50435 13.0083 1.33867 12.4746 1.2224 11.8759L0.855485 10.0096Z" fill="black"/>
<path fill-rule="evenodd" clip-rule="evenodd" d="M22.2215 12.8369C22.3868 12.8414 22.4616 12.7931 22.4616 12.6579C22.4616 12.4027 22.1769 12.4926 21.9218 12.3876C21.5465 12.2374 21.3668 11.9973 21.3668 11.7278C21.3668 11.5028 21.4567 11.2635 21.5918 10.9638L22.3264 9.37453C22.4918 9.01441 22.5967 8.81962 23.0014 8.81962H26.3738C26.7634 8.81962 26.8835 8.93967 27.0186 9.28469L27.7985 11.308C27.9027 11.5625 27.948 11.7436 27.948 11.8773C27.948 12.1468 27.7834 12.2827 27.4535 12.4027C27.2436 12.4767 27.1084 12.4926 27.1084 12.6723C27.1084 12.7478 27.1832 12.8527 27.273 12.8527C27.4082 12.8527 27.8574 12.747 28.6675 12.747C29.5961 12.747 30.1812 12.8361 30.3911 12.8361C30.5262 12.8361 30.5859 12.7923 30.5859 12.6572C30.5859 12.402 30.2408 12.4918 29.8958 12.3423C29.4164 12.1468 29.1461 11.6674 28.8615 10.9328L25.4588 2.26794C25.3984 2.11845 25.369 2.02785 25.2633 2.02785C25.1432 2.02785 25.0987 2.08825 25.024 2.23774L20.8716 11.1125C20.6172 11.6357 20.3763 12.0079 20.0917 12.251C19.8682 12.442 19.6983 12.4412 19.4575 12.3416C18.9789 12.1438 18.7078 11.6666 18.4232 10.932L15.0205 2.26718C14.9601 2.1177 14.9307 2.0271 14.8257 2.0271C14.7057 2.0271 14.6611 2.0875 14.5864 2.23698L10.434 11.1117C10.1788 11.6349 9.95386 12.026 9.65414 12.2502C9.39971 12.445 9.05469 12.4307 9.05469 12.6406C9.05469 12.7455 9.14453 12.8346 9.23437 12.8346C9.38386 12.8346 9.66924 12.7455 10.0739 12.7455C10.9134 12.7455 11.4978 12.8346 11.7832 12.8346C11.9485 12.8346 12.0233 12.7908 12.0233 12.6557C12.0233 12.4005 11.7386 12.4903 11.4834 12.3854C11.1082 12.2351 10.9285 11.9951 10.9285 11.7255C10.9285 11.5005 11.0184 11.2612 11.1535 10.9615L11.8881 9.37227C12.0527 9.01214 12.1576 8.81736 12.5631 8.81736H15.9363C16.3259 8.81736 16.4452 8.9374 16.581 9.28242L17.3602 11.3058C17.4651 11.5602 17.5104 11.7414 17.5104 11.875C17.5104 12.1445 17.3451 12.2804 17.0159 12.4005C16.8053 12.4745 16.6709 12.4903 16.6709 12.67C16.6709 12.7455 16.7456 12.855 16.8355 12.8504C17.7951 12.7946 18.6731 12.7349 19.6108 12.7349C20.525 12.7372 21.8946 12.8301 22.2215 12.8369ZM15.7408 8.22017H12.8779C12.6227 8.22017 12.5027 8.16053 12.5027 8.02614C12.5027 7.95065 12.5329 7.8608 12.5925 7.75586L14.2119 4.29354C14.2723 4.1735 14.3471 4.1282 14.4067 4.1282C14.4671 4.1282 14.5419 4.1886 14.5872 4.30788L15.9514 7.81551C15.9959 7.93555 16.0261 8.01104 16.0261 8.07069C16.0254 8.16053 15.9204 8.22017 15.7408 8.22017ZM26.1791 8.22017H23.3162C23.0618 8.22017 22.9417 8.16053 22.9417 8.02614C22.9417 7.95065 22.9719 7.8608 23.0316 7.75586L24.651 4.29354C24.7106 4.1735 24.7854 4.1282 24.8458 4.1282C24.9054 4.1282 24.9809 4.1886 25.0255 4.30788L26.3897 7.81551C26.435 7.93555 26.4652 8.01104 26.4652 8.07069C26.4637 8.16053 26.3588 8.22017 26.1791 8.22017Z" fill="black"/>
<path fill-rule="evenodd" clip-rule="evenodd" d="M34.1106 3.37809C34.1106 3.09347 34.0057 3.00362 33.6908 3.00362H31.6071C31.0529 3.00362 30.7374 3.27315 30.4829 3.85826C30.3184 4.26293 30.3486 4.59285 30.1085 4.59285C29.9884 4.59285 29.959 4.53245 29.959 4.39807C29.959 4.33842 29.959 4.24783 29.9741 4.14364L30.1387 2.62916C30.1689 2.32943 30.2738 2.31433 30.6332 2.31433C30.9631 2.31433 31.5475 2.40493 32.4021 2.40493H37.0792C38.0236 2.40493 38.6684 2.31433 38.9983 2.31433C39.2082 2.31433 39.298 2.38907 39.3131 2.56876L39.4181 3.933V4.03794C39.4181 4.21763 39.3728 4.32257 39.2376 4.32257C38.9681 4.32257 39.0731 3.933 38.9085 3.61742C38.7129 3.24295 38.2788 3.00362 37.6937 3.00362H35.7451C35.4001 3.00362 35.2808 3.07912 35.2808 3.39319V10.9935C35.2808 11.7432 35.3103 12.0279 35.8501 12.2679C36.3446 12.4929 36.6745 12.3729 36.6745 12.6432C36.6745 12.7934 36.5696 12.8674 36.3446 12.8674C35.9097 12.8674 35.3405 12.7625 34.6361 12.7625C33.7814 12.7625 33.2265 12.8976 32.9721 12.8976C32.7917 12.8976 32.6875 12.8213 32.6875 12.6877C32.6875 12.357 33.1676 12.4763 33.5723 12.2974C34.1114 12.0573 34.1114 11.7274 34.1114 10.9331V3.37809H34.1106Z" fill="black"/>
<path fill-rule="evenodd" clip-rule="evenodd" d="M45.4601 13.0317C42.2968 13.0317 40.3633 10.9932 40.3633 7.74081C40.3633 6.07684 40.9031 4.6673 41.9072 3.60354C42.8215 2.62886 44.0211 2.16455 45.5349 2.16455C46.4491 2.16455 47.2585 2.34424 48.0535 2.7036C48.5925 2.94369 48.8922 3.28796 49.1021 3.28796C49.2222 3.28796 49.3422 3.15282 49.4472 3.15282C49.537 3.15282 49.5815 3.25776 49.5974 3.4533L49.7469 5.01157C49.762 5.13161 49.762 5.22145 49.762 5.31129C49.762 5.47588 49.7318 5.56572 49.5974 5.56572C49.3271 5.56572 49.2826 5.10141 48.9979 4.6371C48.1433 3.28796 46.8991 2.56846 45.55 2.56846C43.2413 2.56846 41.6075 4.38267 41.6075 7.1255C41.6075 10.3485 43.3756 12.507 45.6995 12.507C46.764 12.507 47.8579 12.0729 48.6673 11.3081C49.2516 10.7539 49.3422 10.1545 49.5966 10.1545C49.6714 10.1545 49.731 10.2443 49.731 10.3636C49.731 10.3946 49.7159 10.4836 49.6857 10.6037L49.386 11.8335C48.3079 12.6429 47.0192 13.0317 45.4601 13.0317Z" fill="black"/>
<path fill-rule="evenodd" clip-rule="evenodd" d="M52.4922 4.30761C52.4922 3.66286 52.462 3.2733 52.0279 2.95847C51.6073 2.65874 51.1279 2.82408 51.1279 2.5387C51.1279 2.35902 51.2178 2.31372 51.4428 2.31372C51.7274 2.31372 52.237 2.40432 52.9716 2.40432C53.9908 2.40432 54.5155 2.31372 54.6205 2.31372C54.7707 2.31372 54.8605 2.40432 54.8605 2.5085C54.8605 2.80823 54.366 2.71839 54.0067 3.01811C53.6616 3.31784 53.6465 3.69306 53.6465 4.30761V6.60123C53.6465 6.94626 53.7062 6.97646 54.0361 6.97646H59.0129C59.3436 6.97646 59.4176 6.94626 59.4176 6.60123V4.32271C59.4176 3.67796 59.3874 3.2884 58.9533 2.97357C58.5335 2.67384 58.0541 2.82408 58.0541 2.5387C58.0541 2.35902 58.1439 2.32882 58.3689 2.32882C58.7736 2.32882 59.3285 2.41866 60.0329 2.41866C60.9321 2.41866 61.4417 2.32882 61.5466 2.32882C61.6968 2.32882 61.7867 2.41866 61.7867 2.5236C61.7867 2.82333 61.2922 2.71914 60.9321 3.01811C60.587 3.31784 60.5719 3.69306 60.5719 4.30761V10.8132C60.5719 11.4882 60.6316 11.908 61.0521 12.2228C61.4568 12.5225 61.9362 12.3428 61.9362 12.6584C61.9362 12.8373 61.8463 12.8675 61.6214 12.8675C61.1412 12.8675 60.6021 12.7777 60.0019 12.7777C59.0877 12.7777 58.5478 12.8675 58.4286 12.8675C58.2783 12.8675 58.2036 12.7936 58.2036 12.6728C58.2036 12.3881 58.6377 12.4478 59.0129 12.1178C59.4025 11.7736 59.4176 11.3984 59.4176 10.7997V7.89149C59.4176 7.62196 59.2983 7.57666 59.0129 7.57666H54.0361C53.7515 7.57666 53.6465 7.62196 53.6465 7.89149V10.814C53.6465 11.489 53.7062 11.9087 54.1259 12.2235C54.5306 12.5233 55.0108 12.3436 55.0108 12.6592C55.0108 12.8381 54.9202 12.8683 54.696 12.8683C54.2165 12.8683 53.6767 12.7785 53.0765 12.7785C52.1622 12.7785 51.6375 12.8683 51.5175 12.8683C51.3673 12.8683 51.2782 12.7943 51.2782 12.6735C51.2782 12.3889 51.713 12.4485 52.0875 12.1186C52.4778 11.7743 52.4922 11.3991 52.4922 10.8004V4.30761Z" fill="black"/>
<path fill-rule="evenodd" clip-rule="evenodd" d="M64.7081 4.30747C64.7081 3.66272 64.6779 3.27315 64.2582 2.95833C63.8535 2.6435 63.4043 2.83828 63.4043 2.50912C63.4043 2.35963 63.4941 2.31433 63.7033 2.31433C63.9434 2.31433 64.453 2.40493 65.2027 2.40493C66.2219 2.40493 66.7617 2.31433 66.8666 2.31433C67.0169 2.31433 67.1067 2.40493 67.1067 2.50912C67.1067 2.80884 66.5971 2.719 66.237 3.01872C65.8927 3.31845 65.8927 3.69367 65.8927 4.30822V10.8139C65.8927 11.4888 65.938 11.9086 66.357 12.2234C66.7624 12.5231 67.2418 12.3434 67.2418 12.659C67.2418 12.8379 67.152 12.8681 66.927 12.8681C66.4476 12.8681 65.9221 12.7783 65.3084 12.7783C64.379 12.7783 63.8535 12.8681 63.7342 12.8681C63.5847 12.8681 63.4941 12.7942 63.4941 12.6734C63.4941 12.3887 63.929 12.4484 64.3042 12.1185C64.6938 11.7742 64.7089 11.399 64.7089 10.8003L64.7081 4.30747Z" fill="black"/>
<path fill-rule="evenodd" clip-rule="evenodd" d="M77.4984 12.941C74.8175 12.941 72.9346 11.126 72.9346 8.5772C72.9346 6.84453 73.9689 5.67809 75.7182 5.17905C75.2357 4.54563 74.9851 3.96278 74.9851 3.33011C74.9851 2.04741 76.0353 1.11426 77.5339 1.11426C78.5999 1.11426 79.1669 1.51364 79.3504 1.51364C79.484 1.51364 79.6169 1.36416 79.7331 1.36416C79.8502 1.36416 79.8834 1.49703 79.9 1.78015L79.9664 3.21309V3.26292C79.9664 3.44638 79.8834 3.54604 79.783 3.54604C79.5497 3.54604 79.5497 3.14665 79.2499 2.7133C78.7162 1.93039 78.0503 1.53025 77.284 1.53025C76.4845 1.53025 75.9515 2.06402 75.9515 2.84617C75.9515 3.94542 77.9839 6.1273 81.915 9.84179C82.2487 9.37597 82.3884 9.06643 82.4541 8.78708C82.6851 7.80864 82.3688 7.58063 81.7157 7.29374C81.3193 7.12085 80.8165 7.2273 80.8165 6.94419C80.8165 6.77734 80.966 6.74412 81.2491 6.74412C81.4824 6.74412 82.0668 6.81962 82.716 6.81056C83.5858 6.79772 84.4925 6.6422 84.5174 6.90115C84.5635 7.38509 83.3155 7.15709 83.1939 7.90905C83.0882 8.56059 83.2325 8.95771 82.3823 10.257C83.8817 11.5563 84.7975 12.2721 85.3139 12.2721C85.5638 12.2721 85.7473 12.1558 85.8802 12.1558C85.9806 12.1558 86.0462 12.2388 86.0462 12.3226C86.0462 12.5559 85.5306 12.9055 84.7145 12.9055C83.7315 12.9055 82.8323 12.2894 81.5662 11.2566C80.3998 12.4246 79.0484 12.941 77.4984 12.941ZM77.3338 7.12765C76.5675 6.22847 76.1515 5.66224 75.7348 5.66224C74.9353 5.66224 73.8511 6.57802 73.8511 7.91056C73.8511 8.82634 74.2671 9.81008 75.05 10.5922C75.8994 11.4582 77.0318 11.9248 78.1975 11.9248C79.2318 11.9248 80.316 11.5752 81.1314 10.8927C79.367 9.32614 78.1167 8.04343 77.3338 7.12765Z" fill="black"/>
<path fill-rule="evenodd" clip-rule="evenodd" d="M90.2217 10.0091C90.1885 9.89205 90.1885 9.79163 90.1885 9.70934C90.1885 9.52588 90.2542 9.44208 90.3878 9.44208C90.6709 9.44208 90.6709 9.92526 91.071 10.7248C91.5874 11.775 92.6867 12.4076 93.9694 12.4076C95.6847 12.4076 96.7515 11.3756 96.7515 9.87543C96.7515 8.41003 95.8183 7.91023 93.986 7.37722C91.6539 6.69472 90.5554 5.91181 90.5554 4.02965C90.5554 2.28037 91.971 0.981812 94.2201 0.981812C95.5194 0.981812 96.2691 1.49746 96.5016 1.49746C96.7017 1.49746 96.8511 1.314 96.9516 1.314C97.0014 1.314 97.0512 1.3978 97.0678 1.54804L97.3011 3.57969C97.3177 3.66349 97.3177 3.72993 97.3177 3.79636C97.3177 3.9466 97.2679 4.02965 97.1177 4.02965C96.8013 4.02965 96.8678 3.5963 96.5016 3.03006C95.8183 1.94743 95.0694 1.48085 93.8871 1.48085C92.4549 1.48085 91.4214 2.36342 91.4214 3.54647C91.4214 4.89561 92.3039 5.24516 93.8705 5.74571C95.0369 6.11188 95.9686 6.4116 96.5522 6.94462C97.2853 7.61051 97.6182 8.444 97.6182 9.52588C97.6182 11.6081 96.1188 13.0078 93.5209 13.0078C91.8713 13.0078 90.7056 12.4741 90.5894 11.8754L90.2217 10.0091Z" fill="black"/>
<path fill-rule="evenodd" clip-rule="evenodd" d="M111.585 12.8364C111.751 12.8409 111.825 12.7926 111.825 12.6574C111.825 12.4023 111.541 12.4921 111.286 12.3872C110.91 12.2369 110.731 11.9968 110.731 11.7273C110.731 11.5023 110.821 11.263 110.957 10.9633L111.69 9.37404C111.856 9.01392 111.961 8.81914 112.366 8.81914H115.739C116.128 8.81914 116.248 8.93918 116.383 9.2842L117.163 11.3075C117.268 11.562 117.313 11.7432 117.313 11.8768C117.313 12.1463 117.148 12.2822 116.818 12.4023C116.608 12.4762 116.473 12.4921 116.473 12.6718C116.473 12.7473 116.549 12.8522 116.638 12.8522C116.774 12.8522 117.223 12.7465 118.033 12.7465C118.962 12.7465 119.547 12.8356 119.757 12.8356C119.892 12.8356 119.951 12.7918 119.951 12.6567C119.951 12.4015 119.606 12.4913 119.262 12.3419C118.782 12.1463 118.512 11.6669 118.227 10.9323L114.825 2.26745C114.765 2.11796 114.735 2.02737 114.629 2.02737C114.51 2.02737 114.464 2.08776 114.39 2.23725L110.238 11.112C109.983 11.6352 109.743 12.0074 109.458 12.2505C109.234 12.4415 109.065 12.4408 108.824 12.3411C108.345 12.1433 108.074 11.6662 107.789 10.9316L104.387 2.26669C104.326 2.11721 104.296 2.02661 104.191 2.02661C104.072 2.02661 104.027 2.08701 103.952 2.23649L99.7995 11.1112C99.5443 11.6344 99.3193 12.0255 99.0203 12.2497C98.7659 12.4445 98.4209 12.4302 98.4209 12.6401C98.4209 12.745 98.5107 12.8341 98.6006 12.8341C98.7501 12.8341 99.0354 12.745 99.4401 12.745C100.28 12.745 100.865 12.8341 101.149 12.8341C101.315 12.8341 101.389 12.7903 101.389 12.6552C101.389 12.4 101.104 12.4898 100.85 12.3849C100.474 12.2346 100.295 11.9946 100.295 11.725C100.295 11.5001 100.385 11.2607 100.52 10.961L101.254 9.37178C101.419 9.01165 101.524 8.81687 101.929 8.81687H105.302C105.691 8.81687 105.811 8.93691 105.946 9.28194L106.726 11.3053C106.831 11.5597 106.876 11.7409 106.876 11.8745C106.876 12.1441 106.711 12.2799 106.381 12.4C106.171 12.474 106.036 12.4898 106.036 12.6695C106.036 12.745 106.111 12.8545 106.201 12.85C107.161 12.7941 108.039 12.7344 108.977 12.7344C109.889 12.7367 111.259 12.8296 111.585 12.8364ZM105.105 8.21969H102.242C101.987 8.21969 101.867 8.16004 101.867 8.02565C101.867 7.95016 101.898 7.86032 101.957 7.75537L103.577 4.29305C103.636 4.17301 103.712 4.12771 103.771 4.12771C103.831 4.12771 103.907 4.18811 103.951 4.3074L105.315 7.81502C105.36 7.93506 105.39 8.01055 105.39 8.0702C105.389 8.16004 105.284 8.21969 105.105 8.21969ZM115.543 8.21969H112.679C112.425 8.21969 112.306 8.16004 112.306 8.02565C112.306 7.95016 112.335 7.86032 112.395 7.75537L114.015 4.29305C114.074 4.17301 114.149 4.12771 114.21 4.12771C114.269 4.12771 114.344 4.18811 114.389 4.3074L115.753 7.81502C115.799 7.93506 115.828 8.01055 115.828 8.0702C115.828 8.16004 115.723 8.21969 115.543 8.21969Z" fill="black"/>
<path fill-rule="evenodd" clip-rule="evenodd" d="M123.478 3.37822C123.478 3.09359 123.372 3.00375 123.058 3.00375H120.973C120.419 3.00375 120.104 3.27327 119.85 3.85838C119.685 4.26305 119.715 4.59297 119.475 4.59297C119.355 4.59297 119.325 4.53257 119.325 4.39819C119.325 4.33855 119.325 4.24795 119.34 4.14376L119.506 2.62928C119.535 2.32955 119.641 2.31445 120 2.31445C120.33 2.31445 120.914 2.40505 121.769 2.40505H126.446C127.391 2.40505 128.035 2.31445 128.365 2.31445C128.575 2.31445 128.664 2.3892 128.679 2.56888L128.785 3.93312V4.03806C128.785 4.21775 128.74 4.32269 128.605 4.32269C128.336 4.32269 128.44 3.93312 128.275 3.61754C128.08 3.24307 127.645 3.00375 127.061 3.00375H125.113C124.768 3.00375 124.648 3.07924 124.648 3.39331V10.9937C124.648 11.7434 124.677 12.028 125.217 12.2681C125.712 12.493 126.042 12.373 126.042 12.6433C126.042 12.7935 125.937 12.8675 125.712 12.8675C125.277 12.8675 124.707 12.7626 124.003 12.7626C123.148 12.7626 122.593 12.8977 122.338 12.8977C122.159 12.8977 122.054 12.8215 122.054 12.6878C122.054 12.3572 122.534 12.4764 122.939 12.2975C123.478 12.0574 123.478 11.7275 123.478 10.9333L123.478 3.37822Z" fill="black"/>
<path fill-rule="evenodd" clip-rule="evenodd" d="M134.827 13.0312C131.664 13.0312 129.729 10.9928 129.729 7.74032C129.729 6.07635 130.269 4.66681 131.273 3.60305C132.188 2.62837 133.387 2.16406 134.903 2.16406C135.816 2.16406 136.625 2.34375 137.42 2.70312C137.959 2.9432 138.259 3.28747 138.47 3.28747C138.591 3.28747 138.71 3.15233 138.815 3.15233C138.905 3.15233 138.949 3.25727 138.965 3.45281L139.115 5.01108C139.129 5.13112 139.129 5.22096 139.129 5.3108C139.129 5.47539 139.1 5.56523 138.965 5.56523C138.695 5.56523 138.65 5.10092 138.365 4.63661C137.51 3.28747 136.266 2.56797 134.917 2.56797C132.608 2.56797 130.974 4.38218 130.974 7.12501C130.974 10.348 132.743 12.5065 135.066 12.5065C136.131 12.5065 137.225 12.0724 138.035 11.3076C138.619 10.7534 138.711 10.154 138.965 10.154C139.039 10.154 139.1 10.2438 139.1 10.3631C139.1 10.3941 139.084 10.4831 139.055 10.6032L138.754 11.833C137.676 12.6424 136.386 13.0312 134.827 13.0312Z" fill="black"/>
<path fill-rule="evenodd" clip-rule="evenodd" d="M141.858 4.30774C141.858 3.66299 141.828 3.27342 141.394 2.95859C140.974 2.65887 140.494 2.82421 140.494 2.53883C140.494 2.35914 140.585 2.31384 140.81 2.31384C141.094 2.31384 141.605 2.40444 142.339 2.40444C143.358 2.40444 143.882 2.31384 143.987 2.31384C144.137 2.31384 144.227 2.40444 144.227 2.50863C144.227 2.80835 143.732 2.71851 143.373 3.01824C143.027 3.31796 143.013 3.69318 143.013 4.30774V6.60136C143.013 6.94638 143.072 6.97658 143.403 6.97658H148.38C148.71 6.97658 148.785 6.94638 148.785 6.60136V4.32284C148.785 3.67809 148.754 3.28852 148.319 2.97369C147.9 2.67397 147.42 2.82421 147.42 2.53883C147.42 2.35914 147.51 2.32894 147.736 2.32894C148.14 2.32894 148.695 2.41878 149.399 2.41878C150.298 2.41878 150.808 2.32894 150.914 2.32894C151.063 2.32894 151.152 2.41878 151.152 2.52373C151.152 2.82345 150.658 2.71927 150.298 3.01824C149.953 3.31796 149.938 3.69318 149.938 4.30774V10.8134C149.938 11.4883 149.999 11.9081 150.418 12.2229C150.823 12.5226 151.302 12.343 151.302 12.6585C151.302 12.8375 151.213 12.8677 150.988 12.8677C150.507 12.8677 149.968 12.7778 149.369 12.7778C148.453 12.7778 147.915 12.8677 147.795 12.8677C147.645 12.8677 147.57 12.7937 147.57 12.6729C147.57 12.3883 148.004 12.4479 148.379 12.118C148.769 11.7737 148.784 11.3985 148.784 10.7998V7.89161C148.784 7.62208 148.664 7.57678 148.379 7.57678H143.402C143.117 7.57678 143.012 7.62208 143.012 7.89161V10.8141C143.012 11.4891 143.072 11.9088 143.491 12.2237C143.896 12.5234 144.376 12.3437 144.376 12.6593C144.376 12.8382 144.287 12.8684 144.061 12.8684C143.581 12.8684 143.041 12.7786 142.442 12.7786C141.528 12.7786 141.003 12.8684 140.884 12.8684C140.733 12.8684 140.644 12.7944 140.644 12.6736C140.644 12.389 141.078 12.4486 141.453 12.1187C141.843 11.7745 141.857 11.3992 141.857 10.8005L141.858 4.30774Z" fill="black"/>
<path fill-rule="evenodd" clip-rule="evenodd" d="M154.071 4.30759C154.071 3.66284 154.04 3.27327 153.621 2.95845C153.216 2.64362 152.766 2.83841 152.766 2.50924C152.766 2.35975 152.856 2.31445 153.066 2.31445C153.305 2.31445 153.815 2.40505 154.564 2.40505C155.584 2.40505 156.124 2.31445 156.227 2.31445C156.377 2.31445 156.467 2.40505 156.467 2.50924C156.467 2.80896 155.958 2.71912 155.598 3.01885C155.254 3.31857 155.254 3.6938 155.254 4.30835V10.814C155.254 11.4889 155.3 11.9087 155.718 12.2235C156.124 12.5232 156.603 12.3436 156.603 12.6591C156.603 12.8381 156.513 12.8683 156.288 12.8683C155.808 12.8683 155.283 12.7784 154.669 12.7784C153.74 12.7784 153.214 12.8683 153.095 12.8683C152.945 12.8683 152.855 12.7943 152.855 12.6735C152.855 12.3889 153.29 12.4485 153.665 12.1186C154.055 11.7743 154.069 11.3991 154.069 10.8004V4.30759H154.071Z" fill="black"/>
</svg>
