<svg width="79" height="79" viewBox="0 0 79 79" fill="none" xmlns="http://www.w3.org/2000/svg">
<g clip-path="url(#clip0_1592_2047)">
<path d="M39.5 77C60.2107 77 77 60.2107 77 39.5C77 18.7893 60.2107 2 39.5 2C18.7893 2 2 18.7893 2 39.5C2 60.2107 18.7893 77 39.5 77Z" stroke="#233030" stroke-width="4"/>
<path fill-rule="evenodd" clip-rule="evenodd" d="M34.7134 32.3561H42.3434V36.2661H42.4614C43.2612 35.0072 44.3798 33.9824 45.7038 33.2957C47.0277 32.609 48.5097 32.2848 49.9994 32.3561C58.0554 32.3561 59.5484 37.3791 59.5484 43.9191V57.2131H51.5844V45.4131C51.5844 42.5931 51.5374 38.9921 47.4374 38.9921C43.2904 38.9921 42.6514 42.0491 42.6514 45.2241V57.2131H34.6894V32.3561H34.7134ZM29.1924 25.4561C29.1924 26.2763 28.9492 27.0781 28.4935 27.76C28.0379 28.442 27.3902 28.9735 26.6324 29.2874C25.8747 29.6013 25.0408 29.6834 24.2364 29.5234C23.432 29.3634 22.693 28.9684 22.1131 28.3885C21.5331 27.8085 21.1381 27.0696 20.9781 26.2651C20.8181 25.4607 20.9002 24.6269 21.2141 23.8691C21.528 23.1113 22.0595 22.4637 22.7415 22.008C23.4235 21.5523 24.2252 21.3091 25.0454 21.3091C25.5909 21.3076 26.1312 21.4141 26.6353 21.6223C27.1394 21.8305 27.5974 22.1363 27.9828 22.5223C28.3683 22.9082 28.6736 23.3665 28.8812 23.8709C29.0888 24.3752 29.1946 24.9157 29.1924 25.4611V25.4561ZM20.8994 32.3561H29.1924V57.2131H20.8994V32.3561Z" fill="#233030"/>
</g>
<defs>
<clipPath id="clip0_1592_2047">
<rect width="79" height="79" fill="white"/>
</clipPath>
</defs>
</svg>
