<svg width="79" height="79" viewBox="0 0 79 79" fill="none" xmlns="http://www.w3.org/2000/svg">
<g clip-path="url(#clip0_1592_2072)">
<path d="M78.5 39.5C78.5 61.0391 61.0391 78.5 39.5 78.5C17.9609 78.5 0.5 61.0391 0.5 39.5C0.5 17.9609 17.9609 0.5 39.5 0.5C61.0391 0.5 78.5 17.9609 78.5 39.5Z" stroke="#233030"/>
<path d="M39.5 77C60.2107 77 77 60.2107 77 39.5C77 18.7893 60.2107 2 39.5 2C18.7893 2 2 18.7893 2 39.5C2 60.2107 18.7893 77 39.5 77Z" stroke="#233030" stroke-width="4"/>
<g clip-path="url(#clip1_1592_2072)">
<path d="M37.1306 29.4413C41.4418 28.4663 45.7431 30.2327 48.14 33.5688L29.0853 37.8751C29.7434 33.8467 32.8195 30.4147 37.1306 29.4413ZM48.2456 45.2786C46.7379 47.4567 44.4635 48.9853 41.8773 49.5588C37.5385 50.5403 33.2079 48.7447 30.8208 45.3631L49.9356 41.0455L53.0475 40.3418L58.9999 38.998C58.9639 37.7207 58.7979 36.4504 58.5043 35.2068C56.083 24.9401 45.6099 18.5376 35.1173 20.9068C24.6246 23.2777 18.0824 33.5233 20.5036 43.7933C22.9265 54.0617 33.398 60.4642 43.8906 58.0933C50.0738 56.6958 54.8838 52.5651 57.2969 47.3066L48.2456 45.2786Z" fill="#233030"/>
</g>
<rect x="20.0244" y="20.0244" width="38.9512" height="38.9512" stroke="#233030" stroke-width="0.04875"/>
</g>
<defs>
<clipPath id="clip0_1592_2072">
<rect width="79" height="79" fill="white"/>
</clipPath>
<clipPath id="clip1_1592_2072">
<rect x="20" y="20" width="39" height="39" fill="white"/>
</clipPath>
</defs>
</svg>
