<svg width="80" height="80" viewBox="0 0 80 80" fill="none" xmlns="http://www.w3.org/2000/svg">
<path d="M28.1115 52.9203H52.2793C55.4992 52.9203 58.094 50.3255 58.094 47.1057V33.2793C58.094 30.0784 55.4992 27.4646 52.2793 27.4646H28.1115C24.9106 27.4646 22.2969 30.0594 22.2969 33.2793V47.1057C22.2969 50.3255 24.8917 52.9203 28.1115 52.9203ZM37.4112 44.7949V34.2831L45.3851 39.5296L37.4112 44.7949Z" fill="#233030"/>
<path d="M40.1968 79.6452C62.016 79.6641 79.7062 62.0118 79.7441 40.1926C79.782 18.3734 62.0917 0.683205 40.2915 0.645324C18.4912 0.607444 0.763145 18.2977 0.744205 40.0979C0.725265 50.5908 4.89212 60.6481 12.3167 68.0727C19.7034 75.4973 29.7418 79.6452 40.1968 79.6452ZM40.1968 4.69854C59.8189 4.6796 75.7477 20.5894 75.7666 40.2116C75.7856 59.8337 59.8757 75.7624 40.2536 75.7814C20.6315 75.7814 4.70272 59.8905 4.68378 40.2684C4.68378 30.8361 8.41502 21.7827 15.1009 15.0968C21.749 8.42978 30.7835 4.6796 40.1968 4.69854Z" fill="#233030"/>
</svg>
