<svg width="84" height="32" viewBox="0 0 84 32" fill="none" xmlns="http://www.w3.org/2000/svg">
<path d="M83.0688 10.8679V9.94084H77.6833V10.8347L78.9415 11.0732C79.3819 11.1635 79.5083 11.4905 79.2261 12.1461L76.3306 18.7638C76.2037 19.0314 76.0474 19.0314 75.9523 18.7638L73.2454 12.1549C72.9632 11.4697 73.1204 11.1721 73.5614 11.0817L74.8196 10.8434V9.94084H63.619V10.8347L64.8787 11.0732C65.3176 11.1635 65.4754 11.4905 65.1927 12.1461L62.3927 19.1222C62.2658 19.3901 62.1085 19.3901 62.0145 19.1222L59.1796 12.1461C58.9278 11.4608 59.0547 11.1635 59.4956 11.0732L60.7533 10.8347V9.94084H53.6418V10.8644L54.3336 11.0141C54.7681 11.0806 55.1299 11.3658 55.2777 11.7583L60.0924 22.9676H62.2638L67.0785 11.7583C67.3303 11.1635 67.6145 10.9237 68.1176 10.9237H68.3013C68.7104 10.9237 69.0264 11.0732 69.2783 11.6402L74.3124 23.2651L72.9592 26.3049C72.0778 28.3329 71.4168 28.6911 70.6001 28.6911C70.2532 28.6911 69.865 28.6303 69.4982 28.6303C68.5213 28.6303 67.925 29.2859 67.925 30.0023C67.925 30.808 68.6173 31.3733 69.7187 31.3733C71.2924 31.3733 72.8397 30.18 74.1253 27.3192L80.9885 12.0942C81.3025 11.4089 81.7116 11.1097 82.3725 10.9912L83.0688 10.8679ZM54.3376 22.0165L52.7957 21.8664C52.5653 21.837 52.4025 21.6381 52.4279 21.4198V0.789171L46.8762 2.12997V2.75613L48.4495 3.2327C48.677 3.30634 48.8202 3.51942 48.7946 3.74576V21.3278C48.7946 21.6565 48.5121 21.8946 48.1025 21.8946L46.6979 21.9207L45.2087 21.8946C44.7988 21.8946 44.5166 21.6565 44.5166 21.3278V9.43311L38.977 10.7758V11.3982L40.5432 11.8785C40.7695 11.9496 40.9136 12.1597 40.8902 12.3844V21.4162C40.9161 21.6386 40.7466 21.8388 40.5119 21.8631L39.2268 22.0128V22.9676H54.3321L54.3376 22.0165ZM44.5827 6.36329C44.5827 4.87276 43.1668 3.77022 40.5541 3.77022C36.9666 3.77022 34.1977 5.97549 34.1977 9.3442C34.1977 9.61211 34.229 9.82096 34.229 10.0296C33.3002 9.66977 32.3056 9.48766 31.3023 9.49388C28.4711 9.49388 25.0706 11.1321 25.0706 14.6802C25.0706 16.3201 26.0474 17.8403 27.7457 18.7339C25.2285 19.0614 23.7817 20.3447 23.7817 22.3415C23.7817 24.3676 25.48 25.8196 28.6583 25.4721L33.2485 24.9362C35.5455 24.6683 36.3 25.4427 36.3 26.5761C36.3 28.5434 34.3501 30.1229 31.2344 30.1229C28.7481 30.1229 27.8356 29.2878 27.8356 28.0963C27.8356 27.9223 27.8668 27.6792 27.8668 27.4997C27.8668 26.7851 27.395 26.2824 26.6386 26.2474C25.759 26.2474 25.2228 26.8441 25.2228 27.7087C25.2228 29.6754 27.2058 31.4341 31.2656 31.4341C35.8279 31.4341 38.7235 28.6322 38.7235 25.4126C38.7235 22.8492 36.5515 21.4493 33.5625 21.8057L28.3076 22.4318C26.5762 22.6408 26.0419 22.1049 26.0419 21.2698C26.0419 20.2855 27.1745 19.512 31.1075 19.512H31.1792C34.0417 19.512 37.4091 17.8717 37.4091 14.3237C37.412 13.2046 36.962 12.1271 36.1513 11.3129C35.861 10.7758 35.7695 10.2383 35.7695 9.46441C35.7695 6.84005 37.657 5.34933 39.6087 5.34933C40.4275 5.34933 40.6791 5.46941 40.6791 6.00679C40.6791 6.15463 40.646 6.27452 40.646 6.45371C40.6723 7.48332 41.5751 8.298 42.6623 8.27296C43.7491 8.24812 44.6089 7.39289 44.5827 6.36329ZM33.8782 14.5601C33.8782 16.6475 32.8722 18.4366 31.3077 18.4366C29.7985 18.4366 28.6013 16.8561 28.6013 14.4367C28.6013 12.3794 29.6074 10.5618 31.214 10.5618C32.6923 10.5618 33.8873 12.1411 33.8873 14.562M23.6878 12.414C23.6878 6.48336 18.9031 1.77182 12.0435 1.77182C5.7145 1.77182 0.333008 6.06591 0.333008 12.6523C0.333008 18.5848 5.11591 23.2945 11.9775 23.2945C18.3008 23.2945 23.6841 19.0019 23.6841 12.414M19.0612 12.5637C19.0612 17.8335 16.2574 22.0073 12.0401 22.0073C7.91773 22.0073 4.95999 18.0075 4.95999 12.4993C4.95999 7.22422 7.76006 3.05021 11.9775 3.05021C16.0995 3.05021 19.0612 7.05035 19.0612 12.5637Z" fill="black"/>
</svg>
