<svg width="84" height="34" viewBox="0 0 84 34" fill="none" xmlns="http://www.w3.org/2000/svg">
<path d="M0.665039 0.192993V33.2876H83.4016V0.192993H0.665039ZM42.0402 31.6329C18.9636 31.6329 2.31977 24.8761 2.31977 16.7403C2.31977 8.60454 18.9739 1.84772 42.0402 1.84772C65.103 1.84772 81.7469 8.60454 81.7469 16.7403C81.7469 24.8761 65.1168 31.6329 42.0402 31.6329ZM41.2646 10.735H55.6607V14.0583C55.3056 13.8962 54.9609 13.8962 54.6058 13.8962H48.5454V15.482H54.368V18.0055H48.5454V19.5809H54.6058C54.9609 19.5809 55.3056 19.5809 55.6607 19.4086V22.7422H41.2646C41.4438 22.394 41.4438 22.0596 41.4438 21.7114V11.7761C41.4438 11.4279 41.4438 11.0935 41.2646 10.735ZM16.8711 11.7761V21.7079C16.8711 22.0561 16.8711 22.3905 17.0503 22.7387H8.93869C9.11796 22.3905 9.11796 22.0561 9.11796 21.7079V11.7761C9.11796 11.4279 9.11796 11.0935 8.93869 10.7454H17.0503C16.8711 11.0935 16.8711 11.4279 16.8711 11.7761ZM39.0962 21.7079C39.3582 22.0768 39.6408 22.425 39.9752 22.7387H31.019C31.019 22.3905 30.6743 21.6838 30.2951 21.1288C29.9159 20.5738 27.8647 17.5297 27.8647 17.5297V21.7079C27.8647 22.0561 27.8647 22.3905 28.0439 22.7387H20.5839C20.7631 22.3905 20.7631 22.0561 20.7631 21.7079V11.7761C20.7631 11.4279 20.7631 11.0935 20.5839 10.7454H28.0439C27.8647 11.0935 27.8647 11.4279 27.8647 11.7761V16.1163C27.8647 16.1163 30.2468 13.0827 30.7949 12.376C31.2086 11.8451 31.7188 11.0901 31.7188 10.7454H39.4995C38.9652 11.0935 38.3722 11.7175 37.8861 12.2967L35.0386 15.6889C35.0386 15.6889 38.6204 21.0254 39.0962 21.7079ZM75.452 11.3486C75.452 11.1877 75.3888 11.0331 75.2759 10.9184C75.1631 10.8036 75.0096 10.7377 74.8487 10.735H74.1248V12.6345H74.4109V11.9623H74.8246L75.2038 12.6345H75.5244L75.1107 11.9037C75.2125 11.8507 75.298 11.7711 75.358 11.6733C75.4182 11.5756 75.4506 11.4634 75.452 11.3486ZM74.8004 11.6968H74.4074V11.0384H74.8349C75.0245 11.0384 75.1555 11.2004 75.1555 11.3866C75.1555 11.5693 74.99 11.7072 74.8004 11.6968ZM74.728 10.1214H74.6212C74.4184 10.1245 74.2182 10.1679 74.0323 10.249C73.8465 10.3301 73.6786 10.4474 73.5384 10.594C73.3982 10.7406 73.2886 10.9136 73.2158 11.1029C73.1431 11.2922 73.1087 11.4941 73.1147 11.6968C73.1147 11.721 73.1147 11.7554 73.1043 11.7761C73.1214 12.2004 73.3058 12.6007 73.6171 12.8895C73.9285 13.1783 74.3416 13.332 74.766 13.3171C74.976 13.3144 75.1835 13.2703 75.3765 13.1874C75.5696 13.1046 75.7444 12.9844 75.891 12.834C76.0376 12.6835 76.1532 12.5057 76.231 12.3105C76.3089 12.1154 76.3476 11.9069 76.3448 11.6968V11.6382C76.3386 11.4324 76.2918 11.2297 76.2071 11.042C76.1224 10.8543 76.0015 10.6851 75.8513 10.5442C75.7011 10.4033 75.5246 10.2934 75.3318 10.2208C75.1391 10.1483 74.9339 10.1145 74.728 10.1214ZM74.728 12.9586C74.3897 12.9613 74.064 12.8303 73.8218 12.5939C73.5797 12.3576 73.4407 12.0351 73.4353 11.6968V11.6037C73.4432 11.4421 73.483 11.2835 73.5523 11.1372C73.6216 10.9909 73.7191 10.8598 73.8392 10.7512C73.9593 10.6426 74.0996 10.5588 74.2521 10.5046C74.4046 10.4504 74.5664 10.4267 74.728 10.4351C75.4382 10.4351 76.0208 11.0039 76.0208 11.6968C76.0208 12.3897 75.4416 12.9586 74.728 12.9586ZM71.7047 11.7899C71.5737 11.4417 71.3841 11.1073 71.4806 10.7591H61.08C61.1282 11.1073 60.9972 11.4417 60.8662 11.7899L57.1775 21.7217C57.0625 22.0994 56.8726 22.4499 56.6191 22.7525H62.7726C62.7243 22.4043 62.8553 22.0699 62.9726 21.7217C63.0898 21.3736 63.2208 21.0392 63.2208 21.0392L63.2932 20.853H67.7885L67.8609 21.0254C68.0264 21.4322 68.147 21.7079 68.147 21.7079C68.2884 22.0561 68.4194 22.3905 68.3849 22.7387H76.1863C75.9229 22.4391 75.7245 22.0881 75.6037 21.7079C74.3114 18.399 73.0118 15.093 71.7047 11.7899ZM64.2343 18.3157C64.7686 16.8679 65.2306 15.6544 65.265 15.5372C65.3616 15.2821 65.4305 15.0166 65.4788 14.7512C65.5374 15.0166 65.6201 15.2821 65.7167 15.5372L66.806 18.3157H64.2343Z" fill="black"/>
</svg>
