<svg width="93" height="18" viewBox="0 0 93 18" fill="none" xmlns="http://www.w3.org/2000/svg">
<path d="M12.3193 8.43884V3.24923C12.3193 2.50785 12.0228 1.76648 10.2435 1.76648V1.32166H16.7676V1.76648C14.9883 1.76648 14.6917 2.50785 14.6917 3.24923V14.9629C14.6917 15.7043 14.9883 16.4457 16.7676 16.4457V16.8905H10.2435V16.4457C12.0228 16.4457 12.3193 15.7043 12.3193 14.9629V9.32849H5.20215V14.9629C5.20215 15.7043 5.4987 16.4457 7.27799 16.4457V16.8905H0.753906V16.4457C2.5332 16.4457 2.82975 15.7043 2.82975 14.9629V3.24923C2.82975 2.50785 2.5332 1.76648 0.753906 1.76648V1.32166H7.27799V1.76648C5.4987 1.76648 5.20215 2.50785 5.20215 3.24923V8.43884H12.3193Z" fill="black"/>
<path d="M17.2129 12.1464H17.806C18.5474 14.3705 20.1784 16.2981 22.6991 16.2981C24.6266 16.2981 25.8128 14.6671 25.368 12.8878C24.4784 9.62573 17.9543 9.47745 17.9543 5.02921C17.9543 2.65682 19.7336 1.17407 22.106 1.17407C24.6266 1.17407 25.6645 2.95337 26.2576 1.17407H26.7025L27.1473 6.21541H26.5542C25.9611 3.99129 24.4784 2.21199 22.2542 2.21199C20.9198 2.21199 19.7336 2.95337 19.7336 4.43611C19.7336 5.77059 21.2163 6.80851 22.2542 7.40161C25.368 9.32918 27.5921 10.3671 27.5921 13.1843C27.5921 15.2602 25.8128 17.4843 22.6991 17.4843C20.3267 17.4843 18.5474 15.705 18.3991 17.4843H17.9543L17.2129 12.1464Z" fill="black"/>
<path d="M35.4438 8.29008C37.8162 8.29008 39.1507 7.25216 39.1507 5.32459C39.1507 3.54529 37.9645 2.65564 36.3335 2.35909C34.1094 2.21082 33.368 2.21082 33.368 2.95219V8.29008H35.4438ZM33.5163 14.6659C33.5163 15.5555 33.6645 15.8521 35.4438 15.8521C37.8162 15.8521 39.7438 15.1107 39.7438 12.4418C39.7438 9.62455 36.9266 9.17973 34.7025 9.17973H33.5163V14.6659ZM31.1439 3.24874C31.1439 2.50737 30.8473 1.76599 28.9198 1.76599V1.32117H35.1473C38.7059 1.32117 41.5231 2.21082 41.5231 5.32459C41.5231 7.25216 40.1886 8.29008 38.4093 8.7349C40.4852 9.17973 42.2645 10.3659 42.2645 12.59C42.2645 15.4073 39.8921 16.89 36.1852 16.89H28.7715V16.4452C30.6991 16.4452 30.9956 15.7038 30.9956 14.9624V3.24874H31.1439Z" fill="black"/>
<path d="M56.5044 6.2146H55.9113C55.1699 3.69393 53.5389 1.91463 50.87 1.91463C47.0148 1.91463 45.3838 5.0284 45.3838 9.18009C45.3838 12.4421 47.1631 16.0007 50.87 16.0007C53.0941 16.0007 54.7251 15.2594 56.3561 13.6283L56.8009 14.0732C55.3182 15.8525 52.9458 17.0387 50.7217 17.0387C46.1252 17.0387 42.7148 14.0732 42.7148 9.03182C42.7148 4.4353 45.9769 0.876709 50.7217 0.876709C53.9837 0.876709 55.0216 2.80428 55.9113 0.876709H56.3561L56.5044 6.2146Z" fill="black"/>
<path d="M69.1123 0.877319H84.8294L76.9709 8.73588L69.1123 0.877319Z" fill="black"/>
<path d="M69.1123 16.5934H84.8294L76.9709 8.73486L69.1123 16.5934Z" fill="black"/>
<path d="M69.1007 0.876709V16.5938L61.2422 8.73527L69.1007 0.876709Z" fill="black"/>
<path d="M69.1007 3.84216V16.5938L61.2422 8.73523L69.1007 3.84216Z" fill="black"/>
<path d="M84.8281 0.877197V16.5943L92.6867 8.73576L84.8281 0.877197Z" fill="black"/>
<path d="M84.8281 3.84143V16.5931L92.6867 8.7345L84.8281 3.84143Z" fill="black"/>
<path d="M71.9285 3.69381H82.0112L84.8285 0.876587H69.1113L71.9285 3.69381Z" fill="black"/>
<path d="M84.8271 13.0344V16.593L88.3857 13.0344H84.8271Z" fill="black"/>
<path d="M69.1113 16.5941H84.8285L81.2699 13.0355H72.6699L69.1113 16.5941Z" fill="black"/>
<path d="M65.5518 13.0343L69.1103 16.5929V13.0343H65.5518Z" fill="black"/>
</svg>
