<svg width="76" height="51" viewBox="0 0 76 51" fill="none" xmlns="http://www.w3.org/2000/svg">
<path fill-rule="evenodd" clip-rule="evenodd" d="M59.5521 32.8406C56.7141 17.6602 51.2491 0 44.2756 0C36.4745 0 31.077 26.4995 31.077 26.4995C31.077 26.4995 25.6791 0 17.878 0C7.49346 0 0.454102 39.9327 0.454102 50.9999H6.84733C6.84733 41.6496 10.0156 2.52959 17.8774 2.52959C22.9657 2.52959 26.0734 18.6772 27.3204 32.4503H34.8308C36.0796 18.6772 39.1866 2.52959 44.275 2.52959C49.3845 2.52959 52.5122 18.7041 54.0746 32.8389L59.5521 32.8406ZM60.9657 42.7575C61.4465 46.4609 61.7 48.9018 61.7 50.9999H55.3045C55.3045 49.0798 55.1717 46.248 54.8907 42.4107H60.9514L60.9657 42.7575Z" fill="black"/>
<path fill-rule="evenodd" clip-rule="evenodd" d="M34.2446 47.6268C34.1799 46.1794 34.2595 42.8326 34.2595 42.8326H27.8926C27.8926 42.8326 27.8136 46.1794 27.8777 47.6268H34.2446ZM10.4361 34.7287H13.0012L13.9478 38.3045H14.0113C14.0565 38.0063 14.1023 37.6898 14.1847 37.4014L14.9585 34.7287H17.4961L18.6241 41.5369H16.2141L15.8764 37.8077H15.8318C15.786 38.0343 15.7408 38.2684 15.6676 38.4865L14.6769 41.5369H13.2204L12.331 38.6564C12.2578 38.368 12.1937 38.0973 12.1753 37.8083H12.0935C12.0758 38.079 12.0563 38.3594 12.0294 38.6301L11.7392 41.5374H9.32812L10.4361 34.7287ZM23.3347 38.0269C23.3239 37.7774 23.2369 37.5822 23.0949 37.4426C22.9524 37.2903 22.7567 37.2148 22.506 37.2148C21.6545 37.2148 21.5131 38.091 21.5131 38.764C21.5131 39.6191 21.8393 40.1834 22.506 40.1834C23.0949 40.1834 23.3244 39.7822 23.3897 39.3381H25.6818C25.4849 41.0596 24.0879 41.6988 22.506 41.6988C20.6609 41.6988 19.2428 40.6692 19.2428 38.7526C19.2428 36.813 20.6174 35.6976 22.506 35.6976C24.0341 35.6976 25.4734 36.3483 25.6388 38.0269H23.3347ZM26.784 41.5369V34.818H29.7537C31.9348 34.818 33.2877 35.8252 33.2877 38.0384C33.2877 40.5668 31.869 41.5369 29.6982 41.5369H26.784ZM29.0023 39.9699H29.4721C30.5057 39.9699 31.07 39.4279 31.07 38.158C31.07 36.7598 30.6093 36.3861 29.4252 36.3861H29.0023V39.9699ZM37.1079 35.6976C39.1264 35.6976 40.3706 36.8777 40.3706 38.645C40.3706 40.7242 38.9513 41.6988 37.1187 41.6988C35.2851 41.6988 33.8657 40.703 33.8657 38.7635C33.8657 36.7919 35.1758 35.6976 37.1079 35.6976ZM36.1367 38.645C36.1367 39.7169 36.5401 40.1834 37.1193 40.1834C37.7294 40.1834 38.1008 39.7175 38.1008 38.645C38.1008 37.81 37.7299 37.1805 37.1405 37.2142C36.3656 37.2142 36.1367 38.0046 36.1367 38.645ZM41.288 35.8607H43.3603V36.7484C43.8731 36.0668 44.4299 35.6976 45.293 35.6976C46.7987 35.6976 47.5084 36.5738 47.5084 38.1345V41.5369H45.238V38.5357C45.238 37.9725 45.0847 37.4746 44.4408 37.4746C43.742 37.4746 43.5577 37.917 43.5577 38.645V41.5369H41.2874L41.288 35.8607ZM52.6168 41.5369L52.5075 40.9296C51.8636 41.5266 51.2095 41.6988 50.3567 41.6988C49.2768 41.6988 48.317 41.1689 48.317 39.9876C48.317 37.41 52.3878 38.5792 52.3878 37.5187C52.3878 37.1061 51.8859 37.0517 51.6467 37.0517C51.3291 37.0517 50.9033 37.1175 50.8495 37.6051H48.6656C48.6656 36.4021 49.5286 35.6982 51.7875 35.6982C54.4939 35.6982 54.6582 36.6952 54.6582 38.0487V40.7036C54.6582 41.0275 54.6696 41.1912 54.9644 41.4293V41.5374L52.6168 41.5369ZM52.3878 39.0221C51.6467 39.381 50.6641 39.2087 50.6641 39.9441C50.6641 40.2257 50.9359 40.4203 51.3829 40.4203C52.1812 40.4203 52.4428 39.8045 52.3878 39.0221ZM56.0014 41.5369V33.7369H58.2706V41.5369H56.0014ZM63.672 41.5369V40.7791C63.1352 41.4722 62.6447 41.6988 61.9139 41.6988C60.1901 41.6988 59.3173 40.41 59.3173 38.8058C59.3173 36.9212 60.3761 35.697 61.7393 35.697C62.4604 35.697 62.9623 35.8716 63.4419 36.4325V33.7363H65.7123V41.5363H63.672V41.5369ZM63.5175 38.7526C63.5175 38.1242 63.2994 37.4426 62.5463 37.4426C61.7943 37.4426 61.5871 38.1557 61.5871 38.7852C61.5871 39.381 61.7393 40.074 62.481 40.074C63.2685 40.074 63.5175 39.413 63.5175 38.7526ZM66.6955 36.7707C67.012 36.7158 67.23 36.6087 67.3605 36.433C67.4916 36.2608 67.5683 36.0227 67.5683 35.7188H66.6955V33.7369H68.6917V35.4481C68.7466 36.7707 67.764 37.6578 66.6955 37.6469V36.7707ZM71.7902 39.7707C71.7902 39.9985 71.876 40.1719 72.0294 40.2904C72.1725 40.3997 72.3682 40.4649 72.5862 40.4649C72.9348 40.4649 73.3062 40.3556 73.3062 39.955C73.3062 39.045 69.8043 39.7707 69.8043 37.5708C69.8043 36.1188 71.3197 35.6976 72.5107 35.6976C73.7549 35.6976 75.2177 35.9792 75.3488 37.4849H73.2862C73.2795 37.405 73.2567 37.3273 73.219 37.2566C73.1813 37.1858 73.1296 37.1235 73.067 37.0734C72.9474 36.9762 72.7843 36.9327 72.6086 36.9327C72.2148 36.9327 71.9647 37.0511 71.9647 37.3327C71.9647 38.1242 75.5771 37.5942 75.5771 39.7169C75.5771 40.897 74.5945 41.6988 72.4987 41.6988C71.1898 41.6988 69.7488 41.2988 69.6291 39.7707H71.7902Z" fill="black"/>
</svg>
