<svg width="107" height="20" viewBox="0 0 107 20" fill="none" xmlns="http://www.w3.org/2000/svg">
<path d="M0.311523 19.1714H3.97281V5.17856H4.01489L6.09807 19.1714H8.91776L11.0009 5.17856H11.043V19.1714H14.7043V0.391479H9.1071L7.52899 11.5174H7.48691L5.90873 0.391479H0.311523V19.1714Z" fill="#252525"/>
<path d="M16.2756 4.54642C16.2756 5.96673 16.949 7.51851 17.7064 8.80734C15.7916 10.0962 14.8867 12.0952 14.8867 14.2519C14.8867 17.7765 16.991 19.5387 19.495 19.5387C21.0731 19.5387 22.02 18.8811 23.1352 18.0658L23.7875 19.1705H27.954L25.934 15.6459C27.1333 14.173 27.6174 12.1215 27.7014 10.0173H24.4189C24.3768 10.8327 24.2295 11.5954 23.9138 12.2266L22.2094 9.35973C23.8507 8.04459 24.8186 6.36132 24.8186 4.54648C24.8186 2.46374 23.7409 0.920597 21.9748 0.385864H19.0978C17.3532 0.920597 16.2756 2.46367 16.2756 4.54642ZM20.1684 15.8565C19.3477 15.8565 18.5481 14.9358 18.5481 13.7259C18.5481 13.1735 18.8637 12.4109 19.474 11.8322L21.473 15.2251C21.1574 15.5407 20.6103 15.8565 20.1684 15.8565ZM20.5472 2.91562C21.1994 2.91562 21.6623 3.46794 21.6623 4.23075C21.6623 4.78308 21.3468 5.49326 20.4209 6.54535C19.7265 5.44071 19.4319 4.78308 19.4319 4.23075C19.4319 3.46794 19.8949 2.91562 20.5472 2.91562Z" fill="#252525"/>
<path d="M27.7197 9.78064C27.7197 16.7771 28.6877 19.5388 33.0855 19.5388C35.5895 19.5388 38.0515 18.2762 38.0515 13.0158V11.6218H34.2639C34.2639 15.1725 34.0535 16.2246 33.0856 16.2246C31.8862 16.2246 31.7599 14.857 31.7599 9.78064C31.7599 4.70428 31.8862 3.33652 33.0856 3.33652C33.8431 3.33652 34.1587 3.96778 34.1587 6.0982V7.15037H37.9464V5.96679C37.9464 3.17996 37.1634 1.16983 35.2005 0.385864H30.871C28.5326 1.31483 27.7197 4.11431 27.7197 9.78064Z" fill="#252525"/>
<path d="M39.1893 5.88793C39.1893 12.5424 45.3336 10.7012 45.3336 14.4098C45.3336 15.4356 44.8707 16.2246 44.0711 16.2246C43.3135 16.2246 42.7875 15.646 42.7875 14.0416V13.5944H39V14.252C39 18.1448 40.8096 19.5388 44.0501 19.5388C46.6182 19.5388 48.3115 18.5473 49.0102 16.3929L48.4687 19.1705H52.6351L53.0348 15.8827H56.1492L56.5487 19.1705H60.0549H60.7151H64.2212L64.6211 15.8827H67.7353L68.1352 19.1705H72.3016L68.6402 0.39066H63.7161L60.3849 17.4774L57.0537 0.39066H52.1299L49.3297 14.7536C49.3583 14.4364 49.3737 14.1033 49.3737 13.7524C49.3737 6.8874 42.9769 8.70223 42.9769 4.99356C42.9769 4.15188 43.3556 3.33652 44.1973 3.33652C44.9549 3.33652 45.3126 4.25705 45.3126 5.36184V5.80892H48.9738C48.9738 2.82556 48.1748 1.08646 46.3731 0.385864H42.004C40.119 1.13356 39.1893 3.0202 39.1893 5.88793ZM66.1569 4.23082H66.1993L67.2722 12.2004H65.084L66.1569 4.23082ZM54.5708 4.23082H54.6128L55.6861 12.2004H53.4977L54.5708 4.23082Z" fill="#252525"/>
<path d="M80.1912 4.31782V0.39066H70.3857V4.54648H73.3317V19.1705H77.2453V4.54648H80.1443C79.876 5.92035 79.7608 7.64731 79.7608 9.78064C79.7608 16.7771 80.7285 19.5388 85.1265 19.5388C87.6305 19.5388 90.0922 18.2762 90.0922 13.0158V11.6218H86.3049C86.3049 15.1725 86.0942 16.2246 85.1265 16.2246C83.9272 16.2246 83.8009 14.857 83.8009 9.78064C83.8009 4.70428 83.9272 3.33652 85.1265 3.33652C85.8839 3.33652 86.1997 3.96778 86.1997 6.0982V7.15037H89.987V5.96679C89.987 3.17996 89.2041 1.16983 87.2413 0.385864H82.912C81.5036 0.945381 80.6484 2.18325 80.1912 4.31782Z" fill="#252525"/>
<path d="M97.0362 19.1709H100.95V0.390991H97.0362V7.28226H94.6376V0.390991H90.7236V19.1709H94.6376V11.438H97.0362V19.1709Z" fill="#252525"/>
<path d="M106.03 0.390991H102.116V19.1709H106.03V0.390991Z" fill="#252525"/>
</svg>
