<svg width="2446" height="2328" viewBox="0 0 2446 2328" fill="none" xmlns="http://www.w3.org/2000/svg">
<path d="M1203.98 14.5411C1209.97 -3.88516 1236.03 -3.8852 1242.02 14.541L1516.89 860.497C1519.57 868.737 1527.25 874.316 1535.91 874.316H2425.4C2444.77 874.316 2452.83 899.109 2437.16 910.497L1717.54 1433.33C1710.53 1438.42 1707.6 1447.45 1710.28 1455.69L1985.15 2301.64C1991.13 2320.07 1970.04 2335.39 1954.37 2324L1234.76 1801.17C1227.75 1796.08 1218.25 1796.08 1211.24 1801.17L491.631 2324C475.957 2335.39 454.867 2320.07 460.855 2301.64L735.722 1455.69C738.4 1447.45 735.467 1438.42 728.457 1433.33L8.84389 910.497C-6.83038 899.109 1.2251 874.316 20.5996 874.316H910.09C918.755 874.316 926.434 868.737 929.111 860.497L1203.98 14.5411Z" fill="#048BA2"/>
</svg>
