<svg xmlns="http://www.w3.org/2000/svg" viewBox="0 0 100 100">
  <rect width="100" height="100" rx="22" fill="#CEEAEB"/>
  <g fill="#000000" transform="translate(13.00 30.41) scale(0.05596 -0.05596) translate(-83.00 -700.00)"><path transform="translate(0.00 0)" d="M83 0L83 700L386 700Q480 700 548 669.5Q616 639 653 582Q690 525 690 447Q690 368 653 311.5Q616 255 548 225.5Q480 196 386 196L172 196L246 266L246 0ZM529 0L353 254L527 254L703 0ZM246 248L172 325L377 325Q451 325 489 357Q527 389 527 447Q527 505 489 536.5Q451 568 377 568L172 568L246 645Z"/><path transform="translate(715.35 0)" d="M83 0L83 700L386 700Q480 700 548 669.5Q616 639 653 582Q690 525 690 447Q690 368 653 311.5Q616 255 548 224Q480 193 386 193L172 193L246 266L246 0ZM246 248L172 325L377 325Q451 325 489 357Q527 389 527 447Q527 505 489 536.5Q451 568 377 568L172 568L246 645Z"/></g>
</svg>