<svg width="32" height="47" viewBox="0 0 32 47" fill="none" xmlns="http://www.w3.org/2000/svg">
<path fill-rule="evenodd" clip-rule="evenodd" d="M15.9987 0.588182C14.7812 1.03132 14.1053 1.42936 12.7023 2.5294C11.9396 3.12732 11.5988 3.25261 11.122 3.11074C7.42492 2.01046 3.47717 4.69633 1.55193 9.62177C-1.87239 18.3824 0.787322 32.0725 5.46758 29.7747C7.22313 28.9128 7.69721 25.1847 6.10357 24.7725C5.18337 24.5344 4.67574 23.4558 4.42096 21.1979C4.23959 19.5914 4.4161 19.3574 5.17535 20.1983C6.01216 21.1253 6.53584 20.7338 6.98366 18.847C7.49858 16.6766 8.11027 15.4932 10.1675 12.6855C11.079 11.4419 11.9622 10.0432 12.13 9.57766C12.9082 7.42023 17.6534 10.4096 19.6056 14.2869C22.7255 20.4837 22.7177 31.9265 19.59 36.8242C18.5441 38.4619 19.1483 39.5047 20.6444 38.6438C21.7815 37.9896 20.5479 41.1683 18.294 44.7007C17.3171 46.2317 17.3252 47 18.3183 47C19.9571 47 22.4034 45.0515 23.9525 42.5126C24.8582 41.0281 24.8582 41.0281 24.9342 41.8201C25.2532 45.1353 28.6065 41.0723 30.2145 35.4219C35.743 15.997 27.7141 -3.67646 15.9987 0.588182Z" fill="#CCE9FB"/>
</svg>
