<svg width="43" height="43" viewBox="0 0 43 43" fill="none" xmlns="http://www.w3.org/2000/svg">
<path fill-rule="evenodd" clip-rule="evenodd" d="M18.4975 0.260034C1.01056 3.03276 -6.09632 23.7685 6.08973 36.4625C16.4275 47.231 34.5474 44.2616 40.9561 30.7486C48.2099 15.454 35.0807 -2.36963 18.4975 0.260034ZM23.5123 5.03171C27.4386 6.66699 27.961 12.0228 24.425 14.3928C20.0694 17.3122 14.4933 12.592 16.6782 7.83496C17.8531 5.27692 21.0009 3.98561 23.5123 5.03171ZM16.4109 16.5346C17.0541 16.7735 18.2022 17.2293 18.9623 17.5476C20.9534 18.3814 22.1887 18.3346 24.5966 17.334C31.2789 14.5573 36.2218 16.8771 37.2515 23.2732C39.5067 37.2799 17.764 44.0853 8.47293 32.2813C2.17165 24.2757 7.70454 13.3001 16.4109 16.5346ZM12.7446 23.9429C8.23438 26.7303 16.6769 34.7755 23.0403 33.754C25.3699 33.3801 25.277 32.8751 22.6429 31.5937C20.2376 30.4237 18.4144 28.6474 17.0139 26.1098C15.6617 23.6598 14.3113 22.9746 12.7446 23.9429ZM25.8683 23.8548C22.85 25.2198 22.6901 29.727 25.6067 31.2356C29.0992 33.0419 33.0047 29.3477 31.2408 25.9065C30.2341 23.9421 27.7624 22.9984 25.8683 23.8548Z" fill="#CCE9FB"/>
</svg>
