<svg width="57" height="49" viewBox="0 0 57 49" fill="none" xmlns="http://www.w3.org/2000/svg">
<path fill-rule="evenodd" clip-rule="evenodd" d="M9.47592 0.258089C8.39923 0.849007 8.129 2.20872 8.89845 3.16323C9.31873 3.68457 9.39209 3.69307 14.5004 3.80338C19.6767 3.91525 19.6767 3.91525 18.4575 4.75721C17.7871 5.22037 16.5956 6.24984 15.8098 7.04504C14.3811 8.4909 14.3811 8.4909 7.73792 8.49649C0.291413 8.50276 0 8.57033 0 10.2921C0 11.9572 0.442804 12.0821 6.34441 12.0821C9.23177 12.0821 11.5941 12.1353 11.5941 12.2004C11.5941 12.2653 11.3056 12.8947 10.953 13.5988C7.32522 20.8436 7.65855 30.0347 11.799 36.9181C12.6737 38.3724 12.6737 38.3725 9.77179 38.4863C6.52568 38.6137 5.79703 38.9866 5.79703 40.5207C5.79703 42.1265 6.32233 42.288 11.545 42.288C16.1985 42.288 16.1985 42.288 16.7211 42.8463C17.0087 43.1533 17.7911 43.7827 18.4598 44.2447C19.6756 45.0849 19.6756 45.0849 10.5624 45.1968C0.0909688 45.3254 0.222963 45.2997 0.222963 47.2089C0.222963 49.0448 -0.205126 49.0005 17.5755 48.9998C39.0261 48.9989 41.1148 48.6552 47.1758 44.1284C64.7959 30.968 57.3755 2.93031 35.5626 0.247797C32.8266 -0.0887203 10.0913 -0.0797709 9.47592 0.258089ZM35.9333 9.72084C47.5245 12.1861 51.7118 26.6861 43.2771 35.1505C35.2477 43.2079 21.8227 39.8787 18.3744 28.975C14.9167 18.042 24.6867 7.32875 35.9333 9.72084ZM29.5426 13.5158C26.6371 14.4392 21.9951 18.4206 22.8811 19.2295C24.088 20.3312 27.323 20.753 28.2177 19.9251C28.7381 19.4438 29.5785 18.8377 30.0853 18.5784C31.0068 18.1065 31.0068 18.1065 30.9434 15.7278C30.8745 13.1294 30.8549 13.0988 29.5426 13.5158ZM34.5592 15.7365C34.5592 18.2609 34.5592 18.2609 35.4798 18.6685C35.9864 18.8927 36.784 19.4608 37.2524 19.9309C38.0493 20.7306 41.5565 20.2967 42.6441 19.2639C43.2664 18.673 39.9048 15.3208 37.5931 14.2271C34.5831 12.803 34.5592 12.8146 34.5592 15.7365ZM31.2148 22.1941C29.5381 23.3339 29.5421 25.6638 31.2228 26.8096C32.9996 28.0214 35.4511 26.6825 35.4511 24.5001C35.4511 22.3132 33.0014 20.9798 31.2148 22.1941ZM21.4044 24.5712C21.4044 27.2589 22.5591 30.4216 24.0713 31.8753C24.6954 32.4753 24.6954 32.4753 26.0599 30.5784C27.6258 28.4018 27.5638 28.6222 26.9607 27.3717C26.7056 26.8429 26.4296 25.9392 26.3475 25.3633C26.2104 24.4032 23.2445 22.822 21.5801 22.822C21.4836 22.822 21.4044 23.6091 21.4044 24.5712ZM41.4856 23.5816C39.3819 24.3043 39.3819 24.3043 39.0834 25.6235C38.919 26.3491 38.583 27.2855 38.3367 27.7046C37.9068 28.436 38.7367 30.0651 40.7509 32.4431C41.5942 33.4386 44.2597 26.8224 44.1025 24.1244C44.0193 22.6958 44.0474 22.7016 41.4856 23.5816ZM30.0391 31.3711C28.3377 33.6769 27.6162 34.7236 27.6833 34.7896C28.9165 36 34.3071 36.173 37.0676 35.0905C38.1982 34.647 35.4687 30.5124 34.2299 30.7919C33.4342 30.9715 31.5978 30.9581 31.0021 30.7684C30.6993 30.6719 30.4315 30.8395 30.0391 31.3711Z" fill="#CCE9FB"/>
</svg>
