<svg width="48" height="47" viewBox="0 0 48 47" fill="none" xmlns="http://www.w3.org/2000/svg">
<path d="M12.25 17.625C15.4947 17.625 18.125 14.9947 18.125 11.75C18.125 8.50533 15.4947 5.875 12.25 5.875C9.00533 5.875 6.375 8.50533 6.375 11.75C6.375 14.9947 9.00533 17.625 12.25 17.625Z" fill="#CCE9FB" stroke="#CCE9FB" stroke-width="2.66667" stroke-linecap="round" stroke-linejoin="round"/>
<path d="M16.4017 15.9016L24 23.4999L16.4017 15.9016Z" fill="#CCE9FB"/>
<path d="M16.4017 15.9016L24 23.4999" stroke="#CCE9FB" stroke-width="2.66667" stroke-linecap="round" stroke-linejoin="round"/>
<path d="M39.6667 7.83337L16.4017 31.0984L39.6667 7.83337Z" fill="#CCE9FB"/>
<path d="M39.6667 7.83337L16.4017 31.0984" stroke="#CCE9FB" stroke-width="2.66667" stroke-linecap="round" stroke-linejoin="round"/>
<path d="M12.25 41.125C15.4947 41.125 18.125 38.4947 18.125 35.25C18.125 32.0053 15.4947 29.375 12.25 29.375C9.00533 29.375 6.375 32.0053 6.375 35.25C6.375 38.4947 9.00533 41.125 12.25 41.125Z" fill="#CCE9FB" stroke="#CCE9FB" stroke-width="2.66667" stroke-linecap="round" stroke-linejoin="round"/>
<path d="M29.4833 28.9833L39.6667 39.1666L29.4833 28.9833Z" fill="#CCE9FB"/>
<path d="M29.4833 28.9833L39.6667 39.1666" stroke="#CCE9FB" stroke-width="2.66667" stroke-linecap="round" stroke-linejoin="round"/>
</svg>
