<svg width="49" height="55" viewBox="0 0 49 55" fill="none" xmlns="http://www.w3.org/2000/svg">
<path fill-rule="evenodd" clip-rule="evenodd" d="M19.6755 0.656743C2.09583 5.02859 -0.724006 29.6516 15.4014 37.9774C16.8439 38.7224 16.7699 38.9518 15.0187 39.1647C-9.84643 42.1873 -1.92686 55.0363 24.7788 54.9999C50.9256 54.9641 58.6709 41.8776 34.1561 39.1561C32.2763 38.9474 32.1834 38.7325 33.6458 37.9774C54.4183 27.2522 42.3518 -4.98281 19.6755 0.656743ZM27.6879 0.904107C45.8652 3.90415 49.7648 28.8781 33.3916 37.4313C31.6966 38.3169 31.1434 38.7865 31.7958 38.7865C31.9362 38.7865 32.0515 38.9326 32.052 39.1109C32.0528 39.3272 33.2666 39.6358 35.6881 40.0353C54.9029 43.2064 49.5913 51.9809 28.4328 52.0214C27.1248 52.024 26.9752 52.0814 26.9018 52.6083C26.7793 53.4846 22.2733 53.5209 22.1506 52.6465C22.0796 52.1413 21.8617 52.0879 19.2162 51.9267C-2.1292 50.6263 -5.64232 43.2027 13.5778 40.0122C17.96 39.2846 18.2654 38.8893 15.5946 37.4009C-3.52496 26.7466 6.21242 -2.6405 27.6879 0.904107ZM21.6714 3.49378C8.38949 5.92564 3.27214 22.2673 12.7679 31.9265C23.2044 42.5432 41.2046 35.0485 41.2331 20.0745C41.2528 9.87387 31.5843 1.67865 21.6714 3.49378ZM20.3034 12.8246C21.9237 13.7069 21.4106 18.0213 19.6852 18.0213C18.095 18.0213 17.5229 14.9073 18.8076 13.2456C19.3792 12.5064 19.603 12.4433 20.3034 12.8246ZM29.9849 12.9295C30.2202 13.2178 30.6073 13.6402 29.8594 13.9437C30.372 14.6085 30.2422 13.9437 30.2993 14.7183C31.0078 15.493 31.0505 16.1997 30.5032 17.1954C29.744 18.5755 28.1383 18.0392 27.8173 16.2986C27.4037 14.0547 28.9464 11.6566 29.9849 12.9295ZM18.5775 24.6057C22.0312 27.9245 26.8841 27.9886 30.2993 24.7612C31.7155 23.4229 32.1273 23.2926 32.2518 24.1426C32.5215 25.9814 26.6007 29.0206 23.7109 28.5269C19.8727 27.8713 15.701 24.8764 16.9113 23.6453C17.2037 23.3479 17.3654 23.441 18.5775 24.6057ZM20.8237 39.7599C20.8237 40.0046 21.7339 40.0843 24.5236 40.0843C27.3133 40.0843 28.2235 40.0046 28.2235 39.7599C28.2235 39.5151 27.3133 39.4354 24.5236 39.4354C21.7339 39.4354 20.8237 39.5151 20.8237 39.7599ZM16.6135 41.4135C5.89499 42.4726 0.474252 45.5077 4.93888 47.9496C14.8248 53.3571 50.5382 50.774 45.2793 45.0319C42.6564 42.1678 27.8683 40.3013 16.6135 41.4135ZM5.96797 50.3117C8.9432 51.2562 13.1613 51.9874 17.6798 52.3417C21.3557 52.6298 21.5668 52.676 21.825 53.2525C22.2205 54.1358 26.9252 54.0587 27.3123 53.1627C27.5267 52.6659 27.828 52.5974 30.5019 52.4383C36.558 52.0775 42.4362 50.9001 45.5288 49.4279C47.4316 48.522 47.7222 48.5539 46.5681 49.5418C38.8159 56.1776 10.8845 56.2349 2.64316 49.6324C1.36121 48.6053 1.42985 48.2834 2.77074 49.0338C3.36706 49.3676 4.80594 49.9426 5.96797 50.3117Z" fill="#CCE9FB"/>
</svg>
