<svg width="49" height="48" viewBox="0 0 49 48" fill="none" xmlns="http://www.w3.org/2000/svg">
<circle cx="24.7553" cy="23.9894" r="23.9894" fill="#CCE9FB"/>
<path d="M28.1924 10.6484C29.9193 9.95074 32.142 10.5649 33.1924 12.0645C34.0512 13.2905 33.8837 14.8793 33.2138 16.1055C32.543 17.3332 31.2892 18.3467 29.7802 18.3467C29.1566 18.3467 29.071 18.3685 28.9238 18.5098C28.8175 18.6118 28.6845 18.7888 28.4853 19.1191C28.2888 19.4451 28.0483 19.8834 27.7187 20.4854C27.375 21.1131 27.1187 21.6544 26.9453 22.0986C26.7758 22.5329 26.6982 22.8458 26.6826 23.0459C26.7338 23.0261 26.7968 22.9982 26.872 22.958C26.9951 22.8921 27.1221 22.83 27.2431 22.791C27.354 22.7553 27.5422 22.7109 27.7431 22.7812C27.9753 22.8627 28.0915 23.0463 28.1455 23.1875C28.17 23.2519 28.1865 23.3199 28.1982 23.3857L28.2216 23.5742V23.5752C28.2646 24.1197 28.3383 24.9209 28.4218 25.7588C28.4693 26.2349 28.8059 26.7645 29.373 27.1904C29.9328 27.6108 30.6522 27.8788 31.3457 27.8789C33.2849 27.8789 34.8024 28.9332 35.5009 30.3428C36.203 31.7594 36.068 33.5257 34.7353 34.8584C33.0973 36.4963 30.8519 36.256 29.3291 35.168C27.8057 34.0795 26.8645 32.0396 27.9287 29.9814C28.0081 29.8277 28.0303 29.5662 27.9228 29.1943C27.8184 28.833 27.6083 28.4327 27.332 28.0654C27.0556 27.6981 26.7308 27.3884 26.416 27.1914C26.0915 26.9884 25.842 26.9431 25.6806 26.9785C25.4981 27.0186 25.3209 27.0528 25.166 27.0615C25.0175 27.0699 24.7987 27.0619 24.6035 26.9248C24.3963 26.7791 24.3221 26.5654 24.291 26.4102C24.2674 26.2921 24.2601 26.1596 24.2578 26.0273C24.1513 26.11 24.0216 26.2186 23.8662 26.3594C22.835 27.2937 20.9184 29.3702 17.3759 33.2725C15.4439 35.4007 13.6551 37.3264 12.3291 38.7148C11.6667 39.4084 11.1171 39.9711 10.7216 40.3584C10.5249 40.5511 10.3605 40.7062 10.2373 40.8135C10.1774 40.8656 10.1173 40.9156 10.0625 40.9541C10.0367 40.9722 9.996 40.9988 9.94821 41.0215C9.9246 41.0327 9.88402 41.0505 9.832 41.0625C9.78748 41.0727 9.67976 41.092 9.5527 41.0498H9.55173C9.41189 41.0031 9.20235 40.9063 9.07516 40.6836C8.943 40.4518 8.96831 40.2063 9.02438 40.0186C9.12811 39.6717 9.42691 39.2264 9.88669 38.6445C10.8357 37.4437 12.71 35.3758 16.0244 31.7812C18.1857 29.4374 19.77 27.8063 20.8437 26.5615C21.3781 25.9419 21.7665 25.4392 22.0263 25.0127C22.2868 24.5853 22.3985 24.2667 22.4179 24.0098C22.4532 23.5439 22.1967 23.0764 21.2783 22.3105C20.3661 21.5499 19.0002 20.6484 17.1015 19.2559C14.7779 17.5515 13.3207 16.4512 12.4775 15.7354C12.0616 15.3822 11.7642 15.0974 11.5879 14.8633C11.5014 14.7485 11.4137 14.606 11.3759 14.4434C11.332 14.2532 11.3605 14.037 11.5078 13.8594L11.5781 13.7754C11.6158 13.7331 11.6652 13.6824 11.7187 13.6426C11.8719 13.5287 12.0544 13.4823 12.2519 13.5059C12.4174 13.5256 12.5835 13.5932 12.7461 13.6748C12.9158 13.76 13.1222 13.8824 13.3769 14.0459C14.3886 14.6952 16.3576 16.1246 20.3476 19.0127L21.2197 19.6348C22.0539 20.2211 22.7736 20.6997 23.3457 21.0498C23.7283 21.2839 24.0361 21.4547 24.2627 21.5625C24.3634 21.6104 24.4405 21.6405 24.4951 21.6592C24.5185 21.6424 24.5551 21.6171 24.6025 21.5732C24.7196 21.4648 24.8632 21.3023 25.0244 21.0908C25.3453 20.6697 25.7028 20.102 26.0254 19.5117C26.3482 18.9209 26.6262 18.3253 26.7949 17.8516C26.8799 17.6128 26.9306 17.423 26.9502 17.2891C26.9561 17.2481 26.9556 17.2181 26.956 17.1982C26.1062 16.0054 25.7843 14.6523 25.9843 13.4492C26.1895 12.216 26.9441 11.1529 28.1924 10.6484ZM31.2402 29.7549C31.2201 29.8789 31.177 30.0041 31.1279 30.1182C31.0286 30.3489 30.873 30.6048 30.6865 30.8418C30.0604 31.6378 30.0617 32.5254 30.3847 33.1152C30.6973 33.6858 31.323 34.0184 32.1406 33.7334C32.9395 33.4548 33.3951 32.9067 33.5312 32.3252C33.667 31.7443 33.5014 31.0572 32.9091 30.4648C32.6056 30.1613 31.9647 29.8654 31.4218 29.7373C31.359 29.7225 31.3 29.7102 31.2461 29.7012C31.2439 29.7212 31.2427 29.7394 31.2402 29.7549Z" fill="#333333" stroke="#333333"/>
</svg>
