<svg width="44" height="44" viewBox="0 0 44 44" fill="none" xmlns="http://www.w3.org/2000/svg">
<path fill-rule="evenodd" clip-rule="evenodd" d="M18.0375 0.387408C3.6002 3.1137 -4.16326 18.6171 2.29971 31.8158C10.3661 48.2897 34.2515 47.9928 41.9583 31.3227C49.3977 15.2318 35.3859 -2.88851 18.0375 0.387408ZM32.596 13.1024C39.3058 18.3767 32.3167 28.4214 21.9372 28.4214C11.5576 28.4214 4.56859 18.3767 11.2784 13.1024C12.3139 12.2882 31.5604 12.2882 32.596 13.1024ZM21.6856 13.5869C21.6856 13.7252 21.7988 13.8383 21.9372 13.8383C22.0756 13.8383 22.1888 13.7252 22.1888 13.5869C22.1888 13.4486 22.0756 13.3355 21.9372 13.3355C21.7988 13.3355 21.6856 13.4486 21.6856 13.5869ZM12.6282 20.5013C12.6282 26.41 12.6282 26.41 21.9372 26.41C31.2462 26.41 31.2462 26.41 31.2462 20.5013C31.2462 14.5926 31.2462 14.5926 21.9372 14.5926C12.6282 14.5926 12.6282 14.5926 12.6282 20.5013ZM17.8206 29.3015C17.9408 29.6148 18.6388 29.6786 21.9372 29.6786C25.2356 29.6786 25.9335 29.6148 26.0538 29.3015C26.4193 28.349 36.0265 28.8162 36.0265 29.7865C36.0265 31.5161 36.6841 31.4386 22.0018 31.4386C7.27323 31.4386 7.84787 31.5065 7.84787 29.7654C7.84787 28.8122 17.4611 28.3649 17.8206 29.3015Z" fill="#CCE9FB"/>
</svg>
