<svg width="30" height="31" viewBox="0 0 30 31" fill="none" xmlns="http://www.w3.org/2000/svg">
<path fill-rule="evenodd" clip-rule="evenodd" d="M14.4953 0.910817C12.7357 6.41374 11.078 11.3812 10.9619 11.4995C10.8847 11.5783 8.09451 11.6621 4.76146 11.6861C-1.29846 11.7296 -1.29846 11.7296 3.20253 15.1269C5.67796 16.9955 7.89495 18.6852 8.12899 18.8818C8.55447 19.2394 8.55447 19.2394 8.03938 20.8705C7.75605 21.7678 7.14435 23.7323 6.68 25.2362C6.21549 26.7402 5.62461 28.6358 5.36666 29.4486C5.10871 30.2615 4.92768 30.9571 4.96412 30.9944C5.02917 31.0605 6.69025 29.8883 12.0289 26.0085C15.1139 23.7666 14.8371 23.8363 16.3352 24.9213C25.5756 31.6132 25.1872 31.3532 24.9058 30.6637C24.8222 30.4586 24.3393 28.9485 23.8328 27.3078C22.0459 21.5187 21.7801 20.6718 21.5284 19.9668C21.3794 19.5493 21.3351 19.1995 21.4212 19.1211C21.502 19.0477 22.4465 18.3283 23.5199 17.5225C31.9496 11.1951 31.8017 11.7342 25.1211 11.6861C20.3389 11.6517 19.0466 11.597 18.9044 11.4225C18.8057 11.3013 17.919 8.72231 16.934 5.69135C14.7619 -0.991717 14.972 -0.579888 14.4953 0.910817ZM16.4601 8.49791C17.1871 10.7311 17.8551 12.6503 17.9445 12.7629C18.0649 12.9143 19.2919 12.9788 22.6784 13.0115C27.2497 13.0554 27.2497 13.0554 23.5551 15.8482C21.523 17.3841 19.8605 18.7187 19.8605 18.8139C19.8605 18.909 20.4478 20.8909 21.1655 23.2182C21.8832 25.5455 22.4505 27.506 22.426 27.575C22.4014 27.6441 20.7075 26.4752 18.6614 24.9775C14.9416 22.2545 14.9416 22.2545 14.1888 22.8075C11.2379 24.9755 8.16071 27.2123 7.78826 27.4601C7.26536 27.8078 7.17916 28.1747 8.9884 22.3518C9.60888 20.3551 10.0583 18.6678 9.98719 18.6022C9.85399 18.4794 3.44503 13.6396 2.86423 13.2231C2.58123 13.0202 3.1308 12.9884 7.09296 12.9786C12.5773 12.9652 11.7402 13.5714 13.4505 8.37461C14.3155 5.74653 14.9327 4.10701 15.0101 4.23147C15.0807 4.34482 15.7331 6.26476 16.4601 8.49791ZM13.9804 11.6053C13.0893 14.3812 13.0893 14.3812 10.2131 14.4264C6.78019 14.4805 6.83338 14.329 9.53683 16.3545C11.9322 18.1491 11.8734 18.0457 11.3882 19.6015C10.7381 21.6872 10.2531 23.4613 10.2993 23.5858C10.3248 23.6549 11.3599 22.9683 12.5992 22.0598C13.8386 21.1512 14.9368 20.441 15.0395 20.4811C15.1422 20.5213 16.2067 21.2734 17.4049 22.1524C19.8203 23.9245 19.8027 23.9182 19.4769 22.8967C18.3371 19.3233 18.0623 18.2381 18.2409 18.0189C18.3438 17.8924 19.3359 17.1047 20.4455 16.2686C22.9638 14.3707 23.006 14.464 19.63 14.464C16.7972 14.464 16.7972 14.464 15.8757 11.6467C14.7738 8.278 15.0465 8.28396 13.9804 11.6053ZM15.474 14.5283C15.8757 15.7784 15.8757 15.7784 17.3125 15.8257C18.7493 15.8727 18.7493 15.8727 17.6784 16.6732C16.488 17.5628 16.4796 17.5901 16.929 19.0958C17.334 20.4529 17.3222 20.4584 16.0325 19.5205C14.9543 18.7366 14.9543 18.7366 14.0629 19.3763C13.5727 19.728 13.0151 20.1277 12.824 20.2645C12.4989 20.4968 12.4847 20.4915 12.6066 20.1816C12.8074 19.67 13.3733 17.5746 13.3204 17.5381C11.2379 16.1009 11.1384 15.8734 12.5716 15.825C13.9841 15.7773 13.9842 15.7773 14.1717 15.1621C14.8829 12.8282 14.9213 12.8094 15.474 14.5283Z" fill="#CCE9FB"/>
</svg>
