<svg width="48" height="48" viewBox="0 0 48 48" fill="none" xmlns="http://www.w3.org/2000/svg">
<path fill-rule="evenodd" clip-rule="evenodd" d="M20.6139 4.9608C20.1816 5.47061 20.2975 5.50874 21.8734 5.37515C23.523 5.23524 23.6083 4.76662 22.0032 4.66274C21.2474 4.61384 20.8325 4.70275 20.6139 4.9608ZM23.6258 4.95753C23.805 5.41492 24.4141 5.58104 25.7949 5.54898C26.4255 5.53448 27.3718 5.6318 27.8975 5.76516C29.1765 6.09013 29.7154 6.08756 29.139 5.75931C28.7258 5.52395 24.5006 4.61548 23.8196 4.61548C23.6301 4.61548 23.5484 4.75983 23.6258 4.95753ZM18.5829 5.09767C18.1915 5.21185 17.4925 5.36439 17.0296 5.43621C16.567 5.50804 15.7581 5.76352 15.2323 6.0038C14.7066 6.24431 13.876 6.62006 13.3863 6.83881C12.5315 7.2211 10.2277 9.03523 10.3926 9.19643C10.4363 9.23925 11.077 9.09115 11.8163 8.86725C13.1048 8.477 15.743 6.48015 15.4061 6.15026C15.3325 6.0782 15.4732 6.01924 15.7189 6.01924C16.0783 6.01924 15.9925 6.19284 15.2808 6.90642C14.1058 8.08442 14.1345 8.34552 15.4116 8.1036C15.97 7.99785 16.8289 7.90684 17.3202 7.90123C18.1159 7.8921 18.2574 7.79548 18.6218 7.01358C18.8467 6.53115 19.072 6.05738 19.1229 5.96075C19.1736 5.86413 18.803 5.77125 18.299 5.75393C17.4065 5.72352 17.4122 5.71884 18.5169 5.56793C19.6704 5.41048 20.7063 4.82885 19.7607 4.86956C19.5043 4.88056 18.9745 4.98327 18.5829 5.09767ZM17.1441 5.78528C17.2265 5.91583 17.0478 6.01761 16.74 6.01573C16.296 6.01269 16.2582 5.96777 16.5466 5.78528C16.9914 5.50406 16.9665 5.50406 17.1441 5.78528ZM24.3506 6.54566C24.5484 7.5821 24.5472 7.5814 26.6458 7.72669C28.6591 7.86613 28.6328 7.89842 27.6113 6.54566C27.0757 5.83675 26.9412 5.78528 25.6212 5.78528C24.2055 5.78528 24.2055 5.78528 24.3506 6.54566ZM32.6857 7.94942C34.0148 9.09723 36.4788 10.2139 35.4157 9.18684C34.7795 8.57223 32.1313 6.95509 31.7612 6.95509C31.6364 6.95509 32.0524 7.40265 32.6857 7.94942ZM19.09 8.47303C18.2063 10.7279 18.5509 11.1664 21.207 11.1664C23.7782 11.1664 23.7782 11.1664 23.6301 10.289C23.5486 9.8066 23.4807 9.12227 23.4793 8.76828C23.4762 7.99855 19.3839 7.72318 19.09 8.47303ZM24.7592 8.84619C24.8424 9.25375 24.9105 9.93481 24.9105 10.3599C24.9105 11.2106 24.7207 11.1523 28.5547 11.4799C29.8583 11.5913 29.8759 11.5508 29.2933 9.78461C28.8548 8.45501 28.8902 8.47279 26.2527 8.24655C24.6077 8.10547 24.6077 8.10547 24.7592 8.84619ZM15.2782 8.60287C13.8561 8.83683 11.8992 11.1395 12.5671 11.7934C13.4626 12.6703 17.2186 11.2094 17.5494 9.85573C17.9616 8.16888 17.9513 8.16326 15.2782 8.60287ZM29.9746 8.88527C30.7596 11.7176 30.834 11.7988 32.9992 12.1881C35.4658 12.6314 35.3801 12.6993 34.5042 11.0005C33.5799 9.20766 29.5414 7.3217 29.9746 8.88527ZM7.76392 10.8356C6.98537 11.4361 4.69679 14.3822 4.87387 14.5555C5.00888 14.6877 7.22697 13.3071 7.22697 13.0907C7.22697 12.9915 7.60334 12.3509 8.06335 11.6671C9.20226 9.97412 9.13224 9.7797 7.76392 10.8356ZM19.6243 12.0341C18.52 12.1254 18.52 12.1254 18.3697 13.1993C17.9585 16.1369 17.9066 16.0796 20.9768 16.0796C23.7343 16.0796 23.7343 16.0796 23.6652 14.0324C23.5899 11.8028 23.4234 11.7204 19.6243 12.0341ZM14.0375 12.3809C12.0393 12.6424 11.9236 12.7646 11.5276 15.0309C11.221 16.7854 14.8321 17.6174 16.7017 16.223C16.7211 16.2085 16.8145 15.2754 16.9092 14.1494C17.1061 11.8049 17.3398 11.9487 14.0375 12.3809ZM25.1494 14.0219C25.1494 16.0103 25.1494 16.0103 27.1209 16.1605C30.8588 16.4452 30.5878 16.5849 30.3436 14.5003C29.9541 11.1743 25.1494 10.7317 25.1494 14.0219ZM36.6748 14.0104C36.7445 14.1889 36.9816 15.1259 37.2012 16.0924C37.6008 17.8502 37.6008 17.8502 38.8427 18.2711C39.5259 18.5027 40.6495 19.053 41.3394 19.494C42.0293 19.9348 42.594 20.2048 42.594 20.0936C42.594 19.6395 41.3697 16.6233 40.9647 16.0796C40.2597 15.133 36.3816 13.2627 36.6748 14.0104ZM5.26051 15.0288C4.26068 15.694 2.42518 19.9486 3.30744 19.5558C5.15895 18.7315 5.18859 18.6957 5.74012 16.6067C6.36167 14.2528 6.37266 14.2891 5.26051 15.0288ZM17.9804 19.4792C17.9804 23.3242 23.794 23.2596 23.9032 19.4135C23.9713 17.0154 23.9713 17.0154 20.9759 17.0154C17.9804 17.0154 17.9804 17.0154 17.9804 19.4792ZM25.1494 19.4058C25.1494 21.5809 29.1103 23.6171 30.6457 22.2313C30.8039 22.0886 30.8005 17.557 30.6421 17.4019C29.0195 15.8133 25.1494 17.2253 25.1494 19.4058ZM13.3206 17.5713C11.4089 17.8343 11.4089 17.8343 11.2024 19.1795C10.8148 21.707 11.1415 22.6798 12.3215 22.5126C12.8711 22.4346 14.0196 22.2978 14.8739 22.2082C16.4272 22.0456 16.4272 22.0456 16.4953 19.6475C16.5737 16.887 16.8728 17.0826 13.3206 17.5713ZM7.46593 18.7198C6.08638 19.18 4.70133 24.0747 5.96403 24.0272C8.76902 23.9215 9.91032 22.9337 9.94234 20.5833C9.98034 17.795 10.0599 17.8546 7.46593 18.7198ZM37.6655 21.3011C37.6543 23.7151 37.6543 23.7151 39.187 24.2532C40.0299 24.5492 41.1884 25.1418 41.7612 25.57C42.4274 26.0678 42.8403 26.2475 42.9065 26.0685C42.9636 25.9148 42.973 26.0784 42.9276 26.4323C42.8822 26.7863 42.9498 27.0757 43.0779 27.0757C43.3637 27.0757 43.3665 25.3942 43.0843 23.2516C42.826 21.2878 42.3849 20.7607 40.0915 19.6755C37.6211 18.5064 37.6784 18.4678 37.6655 21.3011ZM3.70389 20.2361C2.82043 20.7936 1.98763 25.672 2.77598 25.672C4.25136 25.672 5.07627 24.3641 5.07627 22.0257C5.07627 19.3087 5.10805 19.3501 3.70389 20.2361ZM2.10903 21.9871C1.8801 23.0956 1.80506 25.351 1.97497 26.0229C2.21322 26.9667 2.25695 26.6707 2.29542 23.8588C2.32912 21.394 2.29733 21.0753 2.10903 21.9871ZM18.2228 24.7946C18.228 27.9456 18.0713 27.7858 21.1152 27.7446C23.7156 27.7098 23.7156 27.7098 23.7156 25.2871C23.7156 22.8644 23.7156 22.8644 20.9675 22.8644C18.2194 22.8644 18.2194 22.8644 18.2228 24.7946ZM25.3196 23.0097C24.2048 24.1011 25.2821 27.7222 26.7625 27.859C30.2437 28.181 30.0793 28.2589 30.2671 26.1984C30.3582 25.201 30.4901 24.1571 30.5601 23.8782C30.698 23.3295 30.9869 23.3983 26.7534 22.9709C26.0585 22.9007 25.4133 22.9182 25.3196 23.0097ZM13.918 23.3529C11.2526 23.6875 11.2502 23.6889 11.4103 24.6844C12.0579 28.7109 11.9893 28.5438 12.9344 28.3887C13.4097 28.3108 14.5312 28.1781 15.4269 28.0942C17.0549 27.9416 17.0549 27.9416 16.9084 26.3972C16.5562 22.684 16.8511 22.9845 13.918 23.3529ZM31.6041 25.7305C31.4359 26.9208 31.2861 27.9856 31.2708 28.0967C31.2342 28.3632 35.2491 29.1774 35.4981 28.9537C37.01 27.5965 36.503 24.3328 34.7181 23.9355C31.8448 23.2956 31.9571 23.2308 31.6041 25.7305ZM7.52567 24.5323C6.53683 24.8332 6.03214 25.1093 6.03214 25.3489C6.03214 25.7314 6.95885 29.4139 7.11895 29.6673C7.25469 29.8826 10.8344 28.8335 10.8373 28.5778C10.8399 28.3438 10.4033 25.7169 10.1892 24.6776C10.0298 23.9039 9.65821 23.8836 7.52567 24.5323ZM37.4789 25.2492C37.417 25.5461 37.1847 26.5601 36.963 27.5025C36.5209 29.3805 36.5515 29.4591 37.8813 29.8753C38.3779 30.0309 39.3366 30.5217 40.0115 30.9665C41.4462 31.9119 41.4046 31.944 42.1234 29.3365C42.7292 27.1382 42.5502 26.8172 40.0898 25.6839C37.8653 24.6596 37.6108 24.6173 37.4789 25.2492ZM18.6328 28.8889C18.5136 29.1152 19.0202 33.0848 19.1896 33.2507C20.4246 34.4598 23.4521 32.8857 23.5204 30.9988C23.5952 28.9313 19.5356 27.1787 18.6328 28.8889ZM13.6946 29.213C12.0524 29.4797 12.1294 29.264 12.8618 31.547C13.6645 34.0489 13.6884 34.0751 14.936 33.8391C15.4933 33.7333 16.3462 33.6425 16.8313 33.6369C17.9592 33.6238 18.0239 33.4954 17.7346 31.8406C17.6026 31.0858 17.4378 30.1259 17.3682 29.7078C17.226 28.852 16.5108 28.7556 13.6946 29.213ZM30.9905 29.4986C30.7898 30.0428 29.729 33.7422 29.7684 33.76C31.3931 34.4928 33.341 34.4158 33.7651 33.6021C34.595 32.009 35.2121 30.2831 35.0178 30.098C34.6416 29.7401 31.0961 29.2123 30.9905 29.4986ZM10.692 29.7677C10.5605 29.8126 9.83481 30.0178 9.07896 30.2237C7.42029 30.6757 7.41312 30.729 8.67367 33.184C9.44529 34.6865 9.72512 35.0395 10.0477 34.9172C10.2707 34.8327 10.9725 34.6458 11.6072 34.5016C12.5963 34.277 12.7445 34.1706 12.6422 33.7576C12.3913 32.7437 11.2017 29.6502 11.0695 29.6678C10.9933 29.6778 10.8234 29.723 10.692 29.7677ZM35.2845 32.4058C34.7702 33.5097 34.3221 34.4743 34.2887 34.5494C34.2552 34.6245 34.7609 34.8711 35.4123 35.0978C36.0637 35.3243 36.9376 35.7903 37.3539 36.1333C38.2151 36.8427 38.744 36.436 40.0949 34.0258C40.8182 32.7352 40.7456 32.553 39.1402 31.6321C36.5347 30.1371 36.3211 30.1802 35.2845 32.4058ZM5.73343 31.5369C4.63872 32.1026 4.63132 32.2692 5.62733 33.8744C7.30774 36.5827 7.11585 36.4503 8.31116 35.7269C9.00488 35.3072 7.56845 31.0226 6.74903 31.0673C6.68332 31.0708 6.22642 31.2821 5.73343 31.5369ZM4.12041 33.5211C4.12041 34.7644 6.47614 37.9823 6.78584 37.1623C6.93232 36.7748 6.70411 36.2561 5.76999 34.8521C4.42891 32.837 4.12041 32.5881 4.12041 33.5211ZM39.5813 35.2426C38.0844 37.4853 37.5974 38.927 38.7841 37.604C39.5832 36.7128 41.1602 34.0971 41.1602 33.6627C41.1602 33.0803 40.7523 33.4884 39.5813 35.2426ZM19.994 34.2607C19.2594 34.3519 19.2594 34.3519 19.6214 36.2119C20.182 39.0927 23.1237 39.1301 23.2912 36.2587C23.4289 33.9027 23.3345 33.8456 19.994 34.2607ZM15.874 34.5679C14.1587 34.8126 14.1577 34.8161 15.2108 36.819C16.0527 38.4203 18.0885 39.1561 19.0902 38.2212C19.1093 38.2034 18.8954 37.3202 18.6154 36.2587C18.0507 34.1187 18.2335 34.2317 15.874 34.5679ZM29.2391 35.0706C29.1213 35.3701 28.743 36.2369 28.3984 36.9966C27.6746 38.5925 27.6509 38.5333 29.1172 38.8014C30.4573 39.0466 30.5176 39.007 31.8417 37.0172C32.9584 35.3392 32.9419 35.1474 31.6639 34.9319C31.1695 34.8486 30.47 34.7232 30.1092 34.653C29.5794 34.5503 29.4121 34.6306 29.2391 35.0706ZM8.72051 36.4611C7.68817 37.1082 7.68554 37.1012 9.66705 38.8718C11.6189 40.616 11.4545 40.5465 12.2369 39.9578C12.8259 39.5147 12.8259 39.5147 11.7401 38.3781C11.1427 37.753 10.4621 36.9545 10.2274 36.6038C9.71819 35.8429 9.70791 35.842 8.72051 36.4611ZM7.34764 37.8344C7.20355 38.2785 8.43518 40.091 8.92602 40.1576C9.00631 40.1686 9.47086 40.546 9.95859 40.9964C10.4463 41.4468 10.9723 41.8068 11.1271 41.7968C11.3274 41.7837 11.3231 41.7444 11.1121 41.6608C10.8898 41.5731 10.8805 41.4243 11.0746 41.0694C11.303 40.6513 11.1288 40.4113 9.60253 39.041C7.56009 37.2076 7.5522 37.2034 7.34764 37.8344ZM36.4967 38.7775C35.9815 39.2939 35.1535 39.9922 34.6562 40.3296C33.8631 40.8677 33.4083 41.8153 33.9434 41.8153C34.26 41.8153 36.9013 39.6392 37.4227 38.9485C38.2646 37.8335 37.5668 37.7046 36.4967 38.7775ZM21.2662 38.942C20.2423 39.0494 20.227 39.1069 20.7723 40.8003C21.5267 43.1437 23.1426 42.497 22.9548 39.9267C22.8733 38.8128 22.8162 38.7796 21.2662 38.942ZM26.7524 40.2325C26.4117 40.8017 25.9665 41.4028 25.7633 41.568C25.2806 41.9601 25.5026 42.2832 26.2549 42.2832C26.6248 42.2832 27.3508 41.8635 28.1525 41.1857C29.4207 40.1139 29.7825 39.4757 29.1222 39.4757C28.9416 39.4757 28.4739 39.413 28.083 39.3364C27.438 39.2101 27.3147 39.2934 26.7524 40.2325ZM14.5288 39.7627C13.8251 40.0128 13.8251 40.0128 14.7678 40.8226C15.7103 41.6323 15.7103 41.6323 14.6007 40.8832C13.4561 40.1104 12.2512 40.1813 12.5731 41.0025C12.6508 41.2006 12.5781 41.2781 12.3834 41.2051C11.9021 41.0242 11.7587 41.6992 12.1597 42.2596C12.9165 43.3173 16.9445 44.7793 16.6566 43.8917C16.4695 43.3145 17.1046 42.672 17.9804 42.5527C18.8706 42.4315 18.8641 42.4105 17.4748 40.9021C16.1433 39.4567 15.7822 39.317 14.5288 39.7627ZM16.1882 41.8153C16.2694 41.9439 16.2821 42.0492 16.2164 42.0492C16.1507 42.0492 16.0305 41.9439 15.9492 41.8153C15.868 41.6866 15.8553 41.5813 15.921 41.5813C15.9868 41.5813 16.107 41.6866 16.1882 41.8153ZM21.8039 43.453C22.398 44.5933 22.2591 44.6097 20.6136 43.5938C19.4281 42.862 18.4851 42.6936 18.8551 43.2796C18.9461 43.4237 18.8952 43.4558 18.7322 43.3571C18.3391 43.1194 17.5025 43.4226 17.5025 43.8028C17.5025 44.0168 17.953 44.171 18.8766 44.273C20.713 44.4756 21.027 44.6265 19.4737 44.5596C17.649 44.4812 17.9382 44.7299 20.0446 45.0507C21.4032 45.2575 21.953 45.2608 22.1953 45.064C22.4267 44.8759 22.5208 44.8736 22.5208 45.0561C22.5208 45.3642 25.1996 45.2383 26.1471 44.8858C26.4915 44.7576 26.831 44.7094 26.9018 44.7788C27.173 45.0442 32.5574 43.0143 32.5574 42.6465C32.5574 42.5934 31.9143 42.8059 31.1284 43.1184C30.3424 43.4312 29.5612 43.687 29.3923 43.687C29.2233 43.687 28.684 43.8975 28.1936 44.1549C27.0774 44.7405 26.9847 44.7391 27.358 44.1406C27.7312 43.5421 27.0239 42.899 26.165 43.056C25.8694 43.11 25.6274 43.0634 25.6274 42.9525C25.6274 42.5951 24.8361 42.7385 24.3283 43.1881C22.9239 44.4319 22.5516 44.4953 22.6926 43.4666C22.8209 42.5305 22.8121 42.5171 22.0694 42.5171C21.3162 42.5171 21.3162 42.5171 21.8039 43.453Z" fill="#CCE9FB"/>
<path fill-rule="evenodd" clip-rule="evenodd" d="M8.83011 1.95426C8.38965 7.74433 6.88602 9.38892 1.90965 9.52376C-0.589434 9.59117 -0.648908 9.97586 1.80925 10.1716C7.28114 10.6074 8.74502 12.4093 8.94552 18.9561C8.97379 19.8759 9.11541 19.3286 9.40483 17.182C10.1474 11.676 11.9434 10.0856 17.4188 10.0856C19.7165 10.0856 19.1209 9.80406 16.1775 9.49921C11.0901 8.97201 10.062 7.88153 9.39334 2.30317C9.03267 -0.706887 9.03267 -0.706887 8.83011 1.95426Z" fill="white"/>
<path fill-rule="evenodd" clip-rule="evenodd" d="M42.5036 38.0398C42.2614 41.3484 41.4344 42.2882 38.6974 42.3652C37.3229 42.4038 37.2902 42.6236 38.6422 42.7354C41.6517 42.9845 42.4568 44.0141 42.5671 47.7551C42.5826 48.2808 42.6605 47.968 42.8197 46.7414C43.2281 43.5951 44.2159 42.6863 47.2274 42.6863C48.4911 42.6863 48.1635 42.5254 46.5447 42.3512C43.7466 42.05 43.1812 41.4268 42.8134 38.2392C42.615 36.5192 42.615 36.5192 42.5036 38.0398Z" fill="white"/>
<path fill-rule="evenodd" clip-rule="evenodd" d="M33.6497 0.837541C33.4735 3.319 32.8721 4.02383 30.8815 4.08161C29.8819 4.1105 29.8581 4.27537 30.8413 4.35926C33.0301 4.54604 33.6157 5.31828 33.6959 8.12402C33.7072 8.51826 33.7638 8.28369 33.8796 7.3637C34.1766 5.00402 34.895 4.32238 37.0852 4.32238C38.0042 4.32238 37.766 4.20174 36.5886 4.07109C34.5537 3.84515 34.1424 3.3778 33.875 0.987073C33.7307 -0.302952 33.7307 -0.302952 33.6497 0.837541Z" fill="white"/>
</svg>
