<svg width="42" height="47" viewBox="0 0 42 47" fill="none" xmlns="http://www.w3.org/2000/svg">
<path fill-rule="evenodd" clip-rule="evenodd" d="M13.1336 0.71014C13.1336 1.49737 14.2535 8.68102 14.3992 8.8286C14.4496 8.8799 14.5726 7.52697 14.6719 5.82212C14.7715 4.11726 14.9237 2.11007 15.0099 1.36124C15.1669 0 15.1669 0 14.1503 0C13.2567 0 13.1336 0.0859736 13.1336 0.71014ZM5.95209 2.89157C5.13714 3.54124 5.2749 3.74529 9.97312 8.84494C11.3153 10.3019 10.899 9.33298 7.9882 4.22702C6.71754 1.99802 6.91301 2.12612 5.95209 2.89157ZM25.0143 5.24581C19.6915 7.21317 17.2701 8.89796 16.6478 11.0668C16.4121 11.8878 15.8116 13.1052 15.3129 13.7718C13.4092 16.3183 13.1373 17.8515 14.41 18.8657C15.2419 19.5286 16.2452 19.3804 16.2452 18.594C16.2452 18.2974 16.3725 18.0544 16.5281 18.0544C16.9405 18.0544 16.8828 18.5043 16.1906 20.6812C14.9191 24.6812 16.6582 32.0884 19.7322 35.7652C21.9762 38.449 22.2073 39.1041 22.3918 43.3056C22.5538 46.9988 22.5538 46.9988 26.0117 46.9988C31.7605 46.9988 31.5424 47.1891 30.7834 42.8354C30.6324 41.9676 30.6324 41.9676 32.8659 41.9756C38.7879 41.9968 42.0055 35.309 40.6367 25.825C40.4186 24.315 40.4642 23.6966 40.8967 22.2889C42.302 17.7142 41.2407 14.1509 37.8343 12.0073C37.2796 11.6583 36.8643 11.1146 36.7501 10.5876C35.9821 7.0458 28.8848 3.81521 25.0143 5.24581ZM0.687277 11.4396C0.687277 11.742 0.614296 12.1821 0.525191 12.4177C0.350942 12.8771 0.946671 12.9674 6.62759 13.3434C10.052 13.57 9.85233 13.4121 4.96006 12.0248C0.271173 10.6954 0.687277 10.7524 0.687277 11.4396ZM39.7836 15.4918C40.7875 16.5089 40.8435 20.1923 39.8902 22.4878C39.4761 23.4848 39.4577 23.9631 39.7411 26.3566C40.9006 36.1395 36.8327 43.1644 31.352 40.8445C30.3532 40.4215 30.3532 40.4215 30.5487 38.4129C30.743 36.4137 30.7385 36.396 29.5931 34.6089C28.1027 32.2833 27.8175 31.5032 28.1983 30.7919C28.9725 29.3453 30.3136 27.974 31.427 27.4906C32.7177 26.93 33.1743 25.6906 32.2258 25.3217C31.1345 24.8976 28.1191 26.1391 26.9898 27.4771C26.3851 28.1941 25.7939 28.6836 25.6768 28.5647C25.2833 28.1663 26.5398 26.2388 28.4537 24.3044C30.5192 22.2169 31.0816 21.3819 30.8437 20.7545C30.7238 20.4373 30.9891 20.347 32.0436 20.347C35.2242 20.347 36.2924 19.6773 36.1235 17.7893C35.8655 14.9058 37.9274 13.6113 39.7836 15.4918ZM20.4235 15.8796C21.0037 16.2593 22.0187 16.6576 22.6792 16.7642C24.0157 16.98 24.4607 17.4067 23.8454 17.883C22.536 18.8964 19.9429 23.0248 19.5079 24.789C19.296 25.6487 19.296 25.6487 19.0211 24.9323C18.6992 24.0923 18.8853 22.3482 19.6024 19.4879C20.3967 16.3186 19.8332 14.9551 18.3139 16.3702C17.6022 17.0333 17.5914 17.0348 17.9077 16.4189C18.1713 15.9051 18.9263 15.2388 19.292 15.1972C19.3345 15.1926 19.8437 15.4996 20.4235 15.8796ZM27.4382 17.4139C29.1999 18.6402 29.8072 20.0028 28.8064 20.484C28.2444 20.754 27.3202 21.3879 26.7531 21.8923C26.1856 22.3966 25.3721 23.0314 24.9455 23.3031C24.5187 23.5745 23.7812 24.5359 23.3069 25.4392C22.6888 26.6159 22.4942 26.8377 22.6206 26.2219C22.9103 24.8108 23.9391 22.6087 24.9127 21.3165C26.2151 19.5879 26.7672 18.3977 26.5655 17.7535C26.3853 17.1781 26.8433 16.9998 27.4382 17.4139ZM4.64749 17.9243C3.0139 18.1238 1.50223 18.2991 1.28838 18.314C0.930547 18.3387 1.00296 19.9028 1.37975 20.2843C1.51666 20.423 9.45631 17.785 9.45631 17.6008C9.45631 17.4199 7.937 17.5222 4.64749 17.9243Z" fill="#CCE9FB"/>
</svg>
