<svg width="100" height="54" viewBox="0 0 100 54" fill="none" xmlns="http://www.w3.org/2000/svg">
<path fill-rule="evenodd" clip-rule="evenodd" d="M25.5042 1.18755C23.5584 1.94455 22.3683 2.94713 21.6767 4.41222C21.3448 5.11583 20.9604 5.6913 20.8227 5.6913C19.454 5.6913 17.1729 9.05058 16.5713 11.9521C16.1914 13.7847 15.7139 14.3377 12.9624 16.1294C10.9918 17.4126 10.8338 17.8608 11.9042 19.1278C12.7037 20.0739 12.7542 20.3611 12.2595 21.1499C11.9792 21.5969 11.9829 21.8251 12.2789 22.2969C12.5933 22.7982 12.5758 22.9653 12.161 23.422C11.7825 23.8381 11.7377 24.0994 11.9606 24.5892C12.1184 24.9362 12.1875 25.9329 12.1141 26.804C11.8847 29.5277 12.2476 29.7013 17.6857 29.4698C24.2918 29.1885 26.1905 29.8348 28.3426 33.0965C29.4421 34.7631 29.5945 34.1404 28.6815 31.7107C27.4782 28.5088 25.3981 27.6088 19.2003 27.6088C14.5747 27.6088 14.1852 27.4196 14.9684 25.5536C15.2511 24.8795 15.2822 24.4628 15.0764 24.0969C14.8738 23.7361 14.8893 23.4234 15.1287 23.0418C15.4103 22.5927 15.3807 22.4343 14.9565 22.1207C14.5236 21.8009 14.4988 21.6528 14.7968 21.1667C15.3316 20.2948 15.2266 19.7126 14.3735 18.8142L13.5974 17.9974L14.2959 17.5343C17.6321 15.3229 18.5072 14.1492 18.9511 11.2909C19.1478 10.0253 20.0658 8.77829 21.7359 7.50849C22.4538 6.9628 23.1726 6.27127 23.3335 5.97202C23.9442 4.83596 26.0805 3.91684 28.4239 3.78168C32.2667 3.56026 32.5534 3.70047 43.3994 11.1103C52.9895 17.6619 56.3924 18.0227 66.6017 13.5709C74.0725 10.3131 76.8198 10.056 79.3198 12.3798L80.1348 13.1376L79.9613 12.2219C79.072 7.53406 73.5956 7.09655 64.8746 11.0164C56.6647 14.7064 53.0099 14.0301 42.9439 6.95802C34.2892 0.877616 29.9726 -0.550672 25.5042 1.18755ZM28.7061 8.73727C27.1684 9.55833 27.4074 9.7657 29.895 9.76767C33.1328 9.77048 34.5449 10.5772 39.5857 15.3018C50.0614 25.1208 55.4312 26.1765 67.6396 20.8172C76.9967 16.7096 80.5669 16.4185 83.1925 19.5493L83.7064 20.1624L83.716 19.4785C83.7318 18.3233 82.5954 16.3763 81.4742 15.6376C78.5517 13.7117 75.5301 14.2113 65.5231 18.2756C55.6798 22.273 50.9365 21.2223 40.0146 12.6248C34.5596 8.33067 31.4618 7.26571 28.7061 8.73727ZM34.9662 17.987C35.6988 18.4107 38.1752 20.5977 40.4692 22.847C50.779 32.9566 56.2865 33.6535 71.5772 26.784C79.1471 23.3832 82.7602 23.214 85.5359 26.1299C86.7376 27.3921 86.9605 26.7149 86.021 24.6558C83.823 19.8379 79.188 19.9646 66.7352 25.1824C55.5014 29.8896 50.6726 28.9367 40.4069 19.9865C38.0685 17.9479 36.6321 17.2258 34.9039 17.2204L33.634 17.2165L34.9662 17.987ZM0.903835 38.3025C1.12621 38.9297 2.33236 42.5966 3.5845 46.4513L5.86076 53.4601H7.36548H8.8702L11.0449 47.77C13.6496 40.9539 13.4885 41.1594 14.3687 43.538C14.7581 44.5906 15.7458 47.2594 16.5631 49.4689L18.0495 53.486L19.6307 53.4028L21.2121 53.3196L23.9334 45.2411L26.6547 37.1625H25.0594H23.4641L21.5293 42.9656C20.3325 46.5547 19.5138 48.6186 19.3835 48.3747C19.2675 48.158 18.3743 45.7252 17.3981 42.9684C15.4013 37.3272 15.294 37.1625 13.6211 37.1625C11.9395 37.1625 11.7772 37.414 9.53507 43.4975C8.45535 46.4268 7.5015 48.634 7.41543 48.4022C7.32936 48.1704 6.67718 46.1473 5.96631 43.9063C5.25515 41.6654 4.4805 39.2315 4.24458 38.4972L3.81591 37.1625H2.15795H0.5L0.903835 38.3025ZM29.9317 37.6992C28.6107 38.5012 28.4132 39.4714 28.4132 45.1531C28.4132 53.5287 28.2814 53.4205 38.5243 53.4444L45.3903 53.4601L45.1933 52.5469C44.7661 50.5659 45.1324 50.6687 38.2127 50.5853L31.9407 50.5097L31.858 48.4792L31.7751 46.449L36.5144 46.3718L41.2535 46.2948L41.3396 44.9601L41.4256 43.6253H36.6126H31.7996V41.9956C31.7996 39.6299 31.6227 39.6914 38.4424 39.6914H44.4082L44.7356 38.9758C45.5941 37.0998 45.8286 37.1625 37.9376 37.1636C31.4319 37.1645 30.7354 37.2111 29.9317 37.6992ZM47.6031 44.3233V51.4842L48.426 52.4019L49.2489 53.3196L55.5164 53.4098L61.7836 53.5L61.5855 52.4263C61.2886 50.8193 61.2316 50.8016 55.8443 50.6502L50.8484 50.5097L50.7728 43.8361L50.6972 37.1625H49.1501H47.6031V44.3233ZM63.4066 44.0609C63.4066 53.7352 63.1839 53.4601 71.0123 53.4601H75.814L76.526 52.0613L77.2377 50.6625L71.945 50.5861L66.6519 50.5097L66.5763 43.8361L66.5007 37.1625H64.9536H63.4066V44.0609ZM85.7631 37.799C85.4329 38.1491 84.253 40.3301 83.1411 42.6461C79.5715 50.0817 78.0812 53.2342 78.0812 53.3485C78.0812 53.4098 78.89 53.4601 79.8786 53.4601H81.6762L82.4105 51.7741L83.1448 50.0882H88.7452H94.3452L95.1546 51.7741L95.964 53.4601H97.732H99.5L99.1131 52.5469C98.0131 49.9508 92.1562 38.1513 91.7399 37.6936C90.9639 36.8394 86.5956 36.9164 85.7631 37.799ZM91.4117 43.6253C92.4573 45.7117 93.3146 47.5137 93.3166 47.6295C93.3186 47.7453 91.2884 47.8402 88.805 47.8402C86.2457 47.8402 84.2897 47.7284 84.2897 47.5817C84.2897 47.1215 87.405 40.7072 87.885 40.179C88.8662 39.0994 89.4095 39.6308 91.4117 43.6253Z" fill="#CCE9FB"/>
</svg>
