<svg width="45" height="45" viewBox="0 0 45 45" fill="none" xmlns="http://www.w3.org/2000/svg">
<path d="M28.4907 24.5059L31.2581 40.08C31.2891 40.2634 31.2634 40.4519 31.1844 40.6203C31.1054 40.7886 30.9768 40.9289 30.816 41.0222C30.6551 41.1156 30.4696 41.1576 30.2842 41.1426C30.0988 41.1277 29.9224 41.0565 29.7785 40.9386L23.2391 36.0303C22.9234 35.7945 22.5399 35.667 22.1458 35.667C21.7517 35.667 21.3682 35.7945 21.0525 36.0303L14.5021 40.9367C14.3584 41.0544 14.1822 41.1255 13.997 41.1405C13.8119 41.1555 13.6265 41.1136 13.4658 41.0205C13.305 40.9274 13.1765 40.7876 13.0973 40.6195C13.0181 40.4515 12.992 40.2633 13.0225 40.08L15.7881 24.5059" fill="#333333"/>
<path d="M28.4907 24.5059L31.2581 40.08C31.2891 40.2634 31.2634 40.4519 31.1844 40.6203C31.1054 40.7886 30.9768 40.9289 30.816 41.0222C30.6551 41.1156 30.4696 41.1576 30.2842 41.1426C30.0988 41.1277 29.9224 41.0565 29.7785 40.9386L23.2391 36.0303C22.9234 35.7945 22.5399 35.667 22.1458 35.667C21.7517 35.667 21.3682 35.7945 21.0525 36.0303L14.5021 40.9367C14.3584 41.0544 14.1822 41.1255 13.997 41.1405C13.8119 41.1555 13.6265 41.1136 13.4658 41.0205C13.305 40.9274 13.1765 40.7876 13.0973 40.6195C13.0181 40.4515 12.992 40.2633 13.0225 40.08L15.7881 24.5059" stroke="#333333" stroke-width="3.65333" stroke-linecap="round" stroke-linejoin="round"/>
<path d="M22.1394 26.5334C28.1925 26.5334 33.0994 21.6265 33.0994 15.5734C33.0994 9.52041 28.1925 4.61345 22.1394 4.61345C16.0864 4.61345 11.1794 9.52041 11.1794 15.5734C11.1794 21.6265 16.0864 26.5334 22.1394 26.5334Z" fill="#333333" stroke="#333333" stroke-width="3.65333" stroke-linecap="round" stroke-linejoin="round"/>
</svg>
